<?xml version="1.0" encoding="UTF-8" standalone="no"?>
<!DOCTYPE svg PUBLIC "-//W3C//DTD SVG 1.1//EN"
 "http://www.w3.org/Graphics/SVG/1.1/DTD/svg11.dtd">
<!-- Generated by graphviz version 2.43.0 (0)
 -->
<!-- Title: packages Pages: 1 -->
<svg width="1362pt" height="908pt"
 viewBox="0.00 0.00 1361.50 908.00" xmlns="http://www.w3.org/2000/svg" xmlns:xlink="http://www.w3.org/1999/xlink">
<g id="graph0" class="graph" transform="scale(1 1) rotate(0) translate(4 904)">
<title>packages</title>
<polygon fill="white" stroke="transparent" points="-4,4 -4,-904 1357.5,-904 1357.5,4 -4,4"/>
<!-- apt&#45;rdepends -->
<g id="node1" class="node">
<title>apt&#45;rdepends</title>
<polygon fill="none" stroke="black" points="1004.5,-900 893.5,-900 893.5,-864 1004.5,-864 1004.5,-900"/>
<text text-anchor="middle" x="949" y="-878.3" font-family="Times,serif" font-size="14.00">apt&#45;rdepends</text>
</g>
<!-- libapt&#45;pkg&#45;perl -->
<g id="node2" class="node">
<title>libapt&#45;pkg&#45;perl</title>
<polygon fill="none" stroke="black" points="946,-828 824,-828 824,-792 946,-792 946,-828"/>
<text text-anchor="middle" x="885" y="-806.3" font-family="Times,serif" font-size="14.00">libapt&#45;pkg&#45;perl</text>
</g>
<!-- apt&#45;rdepends&#45;&gt;libapt&#45;pkg&#45;perl -->
<g id="edge1" class="edge">
<title>apt&#45;rdepends&#45;&gt;libapt&#45;pkg&#45;perl</title>
<path fill="none" stroke="black" d="M933.18,-863.7C925.43,-855.22 915.96,-844.86 907.48,-835.58"/>
<polygon fill="black" stroke="black" points="909.97,-833.12 900.64,-828.1 904.8,-837.85 909.97,-833.12"/>
</g>
<!-- perl:any -->
<g id="node3" class="node">
<title>perl:any</title>
<ellipse fill="none" stroke="black" cx="1013" cy="-810" rx="48.99" ry="18"/>
<text text-anchor="middle" x="1013" y="-806.3" font-family="Times,serif" font-size="14.00">perl:any</text>
</g>
<!-- apt&#45;rdepends&#45;&gt;perl:any -->
<g id="edge2" class="edge">
<title>apt&#45;rdepends&#45;&gt;perl:any</title>
<path fill="none" stroke="black" d="M964.82,-863.7C972.69,-855.09 982.32,-844.55 990.9,-835.17"/>
<polygon fill="black" stroke="black" points="993.64,-837.36 997.8,-827.62 988.47,-832.64 993.64,-837.36"/>
</g>
<!-- libapt&#45;pkg6.0t64 -->
<g id="node4" class="node">
<title>libapt&#45;pkg6.0t64</title>
<polygon fill="none" stroke="black" points="573.5,-468 438.5,-468 438.5,-432 573.5,-432 573.5,-468"/>
<text text-anchor="middle" x="506" y="-446.3" font-family="Times,serif" font-size="14.00">libapt&#45;pkg6.0t64</text>
</g>
<!-- libapt&#45;pkg&#45;perl&#45;&gt;libapt&#45;pkg6.0t64 -->
<g id="edge3" class="edge">
<title>libapt&#45;pkg&#45;perl&#45;&gt;libapt&#45;pkg6.0t64</title>
<path fill="none" stroke="black" d="M554,-521C545.67,-505.63 534.75,-489.48 525.43,-476.56"/>
<polygon fill="black" stroke="black" points="528.03,-474.18 519.29,-468.19 522.38,-478.32 528.03,-474.18"/>
</g>
<!-- libc6 -->
<g id="node5" class="node">
<title>libc6</title>
<polygon fill="none" stroke="black" points="668,-180 614,-180 614,-144 668,-144 668,-180"/>
<text text-anchor="middle" x="641" y="-158.3" font-family="Times,serif" font-size="14.00">libc6</text>
</g>
<!-- libapt&#45;pkg&#45;perl&#45;&gt;libc6 -->
<g id="edge4" class="edge">
<title>libapt&#45;pkg&#45;perl&#45;&gt;libc6</title>
<path fill="none" stroke="black" d="M554,-521C541.2,-497.4 570.29,-491.65 583,-468 608.69,-420.19 606.13,-402.41 640,-360 662.41,-331.94 704.71,-342.72 701,-307"/>
</g>
<!-- libgcc&#45;s1 -->
<g id="node6" class="node">
<title>libgcc&#45;s1</title>
<polygon fill="none" stroke="black" points="80,-108 0,-108 0,-72 80,-72 80,-108"/>
<text text-anchor="middle" x="40" y="-86.3" font-family="Times,serif" font-size="14.00">libgcc&#45;s1</text>
</g>
<!-- libapt&#45;pkg&#45;perl&#45;&gt;libgcc&#45;s1 -->
<g id="edge5" class="edge">
<title>libapt&#45;pkg&#45;perl&#45;&gt;libgcc&#45;s1</title>
<path fill="none" stroke="black" d="M852.92,-791.88C784.94,-753.74 626.67,-654.64 554,-523"/>
<path fill="none" stroke="black" d="M554,-521C475.67,-444.68 157.33,-471.28 78,-396 68.56,-387.04 31.34,-237.64 31,-235"/>
<path fill="none" stroke="black" d="M31,-233C23.49,-193.63 29.12,-147.11 34.24,-118.33"/>
<polygon fill="black" stroke="black" points="37.74,-118.7 36.16,-108.22 30.86,-117.4 37.74,-118.7"/>
</g>
<!-- perl -->
<g id="node7" class="node">
<title>perl</title>
<polygon fill="none" stroke="black" points="912,-756 858,-756 858,-720 912,-720 912,-756"/>
<text text-anchor="middle" x="885" y="-734.3" font-family="Times,serif" font-size="14.00">perl</text>
</g>
<!-- libapt&#45;pkg&#45;perl&#45;&gt;perl -->
<g id="edge6" class="edge">
<title>libapt&#45;pkg&#45;perl&#45;&gt;perl</title>
<path fill="none" stroke="black" d="M885,-791.7C885,-783.98 885,-774.71 885,-766.11"/>
<polygon fill="black" stroke="black" points="888.5,-766.1 885,-756.1 881.5,-766.1 888.5,-766.1"/>
</g>
<!-- perlapi&#45;5.38.2 -->
<g id="node8" class="node">
<title>perlapi&#45;5.38.2</title>
<ellipse fill="none" stroke="black" cx="1005" cy="-738" rx="75.29" ry="18"/>
<text text-anchor="middle" x="1005" y="-734.3" font-family="Times,serif" font-size="14.00">perlapi&#45;5.38.2</text>
</g>
<!-- libapt&#45;pkg&#45;perl&#45;&gt;perlapi&#45;5.38.2 -->
<g id="edge7" class="edge">
<title>libapt&#45;pkg&#45;perl&#45;&gt;perlapi&#45;5.38.2</title>
<path fill="none" stroke="black" d="M914.36,-791.88C930.78,-782.29 951.4,-770.27 968.81,-760.11"/>
<polygon fill="black" stroke="black" points="970.72,-763.05 977.59,-754.99 967.19,-757 970.72,-763.05"/>
</g>
<!-- libapt&#45;pkg6.0t64&#45;&gt;libc6 -->
<g id="edge9" class="edge">
<title>libapt&#45;pkg6.0t64&#45;&gt;libc6</title>
<path fill="none" stroke="black" d="M582,-377C619.51,-343.49 640.1,-351.82 682,-324 691.44,-317.73 702.17,-318.27 701,-307"/>
<path fill="none" stroke="black" d="M701,-305C697.74,-273.6 693.68,-266.22 689,-235"/>
</g>
<!-- libapt&#45;pkg6.0t64&#45;&gt;libgcc&#45;s1 -->
<g id="edge10" class="edge">
<title>libapt&#45;pkg6.0t64&#45;&gt;libgcc&#45;s1</title>
<path fill="none" stroke="black" d="M438.5,-446.72C342.25,-442.31 171.62,-429.85 121,-396 82.92,-370.53 68.84,-352.81 69,-307"/>
<path fill="none" stroke="black" d="M69,-305C61.57,-270.39 35.55,-270.11 31,-235"/>
</g>
<!-- libbz2&#45;1.0 -->
<g id="node9" class="node">
<title>libbz2&#45;1.0</title>
<polygon fill="none" stroke="black" points="735.5,-396 648.5,-396 648.5,-360 735.5,-360 735.5,-396"/>
<text text-anchor="middle" x="692" y="-374.3" font-family="Times,serif" font-size="14.00">libbz2&#45;1.0</text>
</g>
<!-- libapt&#45;pkg6.0t64&#45;&gt;libbz2&#45;1.0 -->
<g id="edge8" class="edge">
<title>libapt&#45;pkg6.0t64&#45;&gt;libbz2&#45;1.0</title>
<path fill="none" stroke="black" d="M551.5,-431.88C577.86,-421.96 611.18,-409.42 638.76,-399.04"/>
<polygon fill="black" stroke="black" points="640.12,-402.26 648.25,-395.47 637.66,-395.71 640.12,-402.26"/>
</g>
<!-- libgcrypt20 -->
<g id="node10" class="node">
<title>libgcrypt20</title>
<polygon fill="none" stroke="black" points="320.5,-324 221.5,-324 221.5,-288 320.5,-288 320.5,-324"/>
<text text-anchor="middle" x="271" y="-302.3" font-family="Times,serif" font-size="14.00">libgcrypt20</text>
</g>
<!-- libapt&#45;pkg6.0t64&#45;&gt;libgcrypt20 -->
<g id="edge11" class="edge">
<title>libapt&#45;pkg6.0t64&#45;&gt;libgcrypt20</title>
<path fill="none" stroke="black" d="M438.14,-433.51C406.19,-423.02 369.94,-406 346,-379"/>
<path fill="none" stroke="black" d="M346,-377C331.54,-360.7 313.77,-343.99 299.16,-330.99"/>
<polygon fill="black" stroke="black" points="301.23,-328.14 291.41,-324.17 296.61,-333.4 301.23,-328.14"/>
</g>
<!-- liblz4&#45;1 -->
<g id="node11" class="node">
<title>liblz4&#45;1</title>
<polygon fill="none" stroke="black" points="538.5,-324 469.5,-324 469.5,-288 538.5,-288 538.5,-324"/>
<text text-anchor="middle" x="504" y="-302.3" font-family="Times,serif" font-size="14.00">liblz4&#45;1</text>
</g>
<!-- libapt&#45;pkg6.0t64&#45;&gt;liblz4&#45;1 -->
<g id="edge12" class="edge">
<title>libapt&#45;pkg6.0t64&#45;&gt;liblz4&#45;1</title>
<path fill="none" stroke="black" d="M504.17,-431.85C503.08,-417.56 502.5,-396.77 506,-379"/>
<path fill="none" stroke="black" d="M506,-377C508.73,-363.11 508.57,-347.38 507.57,-334.36"/>
<polygon fill="black" stroke="black" points="511.03,-333.77 506.59,-324.15 504.07,-334.44 511.03,-333.77"/>
</g>
<!-- liblzma5 -->
<g id="node12" class="node">
<title>liblzma5</title>
<polygon fill="none" stroke="black" points="672.5,-324 595.5,-324 595.5,-288 672.5,-288 672.5,-324"/>
<text text-anchor="middle" x="634" y="-302.3" font-family="Times,serif" font-size="14.00">liblzma5</text>
</g>
<!-- libapt&#45;pkg6.0t64&#45;&gt;liblzma5 -->
<g id="edge13" class="edge">
<title>libapt&#45;pkg6.0t64&#45;&gt;liblzma5</title>
<path fill="none" stroke="black" d="M524.29,-431.87C539.59,-417.6 562.07,-396.81 582,-379"/>
<path fill="none" stroke="black" d="M582,-377C596.26,-364.26 609.11,-347.05 618.47,-332.88"/>
<polygon fill="black" stroke="black" points="621.65,-334.4 624.09,-324.09 615.76,-330.62 621.65,-334.4"/>
</g>
<!-- libstdc++6 -->
<g id="node13" class="node">
<title>libstdc++6</title>
<polygon fill="none" stroke="black" points="157,-252 59,-252 59,-216 157,-216 157,-252"/>
<text text-anchor="middle" x="108" y="-230.3" font-family="Times,serif" font-size="14.00">libstdc++6</text>
</g>
<!-- libapt&#45;pkg6.0t64&#45;&gt;libstdc++6 -->
<g id="edge14" class="edge">
<title>libapt&#45;pkg6.0t64&#45;&gt;libstdc++6</title>
<path fill="none" stroke="black" d="M69,-305C69.06,-288.84 77.09,-272.93 85.86,-260.37"/>
<polygon fill="black" stroke="black" points="88.75,-262.35 91.95,-252.25 83.15,-258.15 88.75,-262.35"/>
</g>
<!-- libsystemd0 -->
<g id="node14" class="node">
<title>libsystemd0</title>
<polygon fill="none" stroke="black" points="478,-396 374,-396 374,-360 478,-360 478,-396"/>
<text text-anchor="middle" x="426" y="-374.3" font-family="Times,serif" font-size="14.00">libsystemd0</text>
</g>
<!-- libapt&#45;pkg6.0t64&#45;&gt;libsystemd0 -->
<g id="edge15" class="edge">
<title>libapt&#45;pkg6.0t64&#45;&gt;libsystemd0</title>
<path fill="none" stroke="black" d="M486.22,-431.7C476.25,-422.97 463.99,-412.24 453.14,-402.75"/>
<polygon fill="black" stroke="black" points="455.38,-400.06 445.55,-396.1 450.77,-405.32 455.38,-400.06"/>
</g>
<!-- libudev1 -->
<g id="node15" class="node">
<title>libudev1</title>
<polygon fill="none" stroke="black" points="208,-396 130,-396 130,-360 208,-360 208,-396"/>
<text text-anchor="middle" x="169" y="-374.3" font-family="Times,serif" font-size="14.00">libudev1</text>
</g>
<!-- libapt&#45;pkg6.0t64&#45;&gt;libudev1 -->
<g id="edge16" class="edge">
<title>libapt&#45;pkg6.0t64&#45;&gt;libudev1</title>
<path fill="none" stroke="black" d="M438.21,-434.92C373.11,-421.4 276.35,-401.3 218.29,-389.24"/>
<polygon fill="black" stroke="black" points="218.77,-385.76 208.27,-387.16 217.35,-392.62 218.77,-385.76"/>
</g>
<!-- libxxhash0 -->
<g id="node16" class="node">
<title>libxxhash0</title>
<polygon fill="none" stroke="black" points="641,-252 547,-252 547,-216 641,-216 641,-252"/>
<text text-anchor="middle" x="594" y="-230.3" font-family="Times,serif" font-size="14.00">libxxhash0</text>
</g>
<!-- libapt&#45;pkg6.0t64&#45;&gt;libxxhash0 -->
<g id="edge17" class="edge">
<title>libapt&#45;pkg6.0t64&#45;&gt;libxxhash0</title>
<path fill="none" stroke="black" d="M506,-377C511.81,-347.51 531.69,-349.25 548,-324 560.98,-303.91 573.29,-279.72 581.9,-261.63"/>
<polygon fill="black" stroke="black" points="585.21,-262.81 586.29,-252.27 578.88,-259.84 585.21,-262.81"/>
</g>
<!-- libzstd1 -->
<g id="node17" class="node">
<title>libzstd1</title>
<polygon fill="none" stroke="black" points="413,-324 339,-324 339,-288 413,-288 413,-324"/>
<text text-anchor="middle" x="376" y="-302.3" font-family="Times,serif" font-size="14.00">libzstd1</text>
</g>
<!-- libapt&#45;pkg6.0t64&#45;&gt;libzstd1 -->
<g id="edge18" class="edge">
<title>libapt&#45;pkg6.0t64&#45;&gt;libzstd1</title>
<path fill="none" stroke="black" d="M346,-377C334.71,-364.26 342.36,-346.64 352.76,-332.26"/>
<polygon fill="black" stroke="black" points="355.64,-334.25 359.07,-324.23 350.14,-329.92 355.64,-334.25"/>
</g>
<!-- zlib1g -->
<g id="node18" class="node">
<title>zlib1g</title>
<polygon fill="none" stroke="black" points="814,-396 754,-396 754,-360 814,-360 814,-396"/>
<text text-anchor="middle" x="784" y="-374.3" font-family="Times,serif" font-size="14.00">zlib1g</text>
</g>
<!-- libapt&#45;pkg6.0t64&#45;&gt;zlib1g -->
<g id="edge19" class="edge">
<title>libapt&#45;pkg6.0t64&#45;&gt;zlib1g</title>
<path fill="none" stroke="black" d="M573.63,-437.61C619.65,-429.03 681.89,-415.82 744.37,-395.89"/>
<polygon fill="black" stroke="black" points="745.56,-399.18 753.99,-392.76 743.4,-392.52 745.56,-399.18"/>
</g>
<!-- libc6&#45;&gt;libgcc&#45;s1 -->
<g id="edge21" class="edge">
<title>libc6&#45;&gt;libgcc&#45;s1</title>
<path fill="none" stroke="black" d="M603.62,-156.65C499.93,-144.57 208.58,-110.64 90.58,-96.89"/>
<polygon fill="black" stroke="black" points="603.28,-160.13 613.61,-157.81 604.09,-153.18 603.28,-160.13"/>
<polygon fill="black" stroke="black" points="90.72,-93.38 80.38,-95.7 89.91,-100.34 90.72,-93.38"/>
</g>
<!-- gcc&#45;14&#45;base -->
<g id="node19" class="node">
<title>gcc&#45;14&#45;base</title>
<polygon fill="none" stroke="black" points="124.5,-36 23.5,-36 23.5,0 124.5,0 124.5,-36"/>
<text text-anchor="middle" x="74" y="-14.3" font-family="Times,serif" font-size="14.00">gcc&#45;14&#45;base</text>
</g>
<!-- libgcc&#45;s1&#45;&gt;gcc&#45;14&#45;base -->
<g id="edge22" class="edge">
<title>libgcc&#45;s1&#45;&gt;gcc&#45;14&#45;base</title>
<path fill="none" stroke="black" d="M48.4,-71.7C52.27,-63.73 56.95,-54.1 61.24,-45.26"/>
<polygon fill="black" stroke="black" points="64.47,-46.63 65.69,-36.1 58.17,-43.57 64.47,-46.63"/>
</g>
<!-- libperl5.38t64 -->
<g id="node22" class="node">
<title>libperl5.38t64</title>
<polygon fill="none" stroke="black" points="1057.5,-684 938.5,-684 938.5,-648 1057.5,-648 1057.5,-684"/>
<text text-anchor="middle" x="998" y="-662.3" font-family="Times,serif" font-size="14.00">libperl5.38t64</text>
</g>
<!-- perl&#45;&gt;libperl5.38t64 -->
<g id="edge44" class="edge">
<title>perl&#45;&gt;libperl5.38t64</title>
<path fill="none" stroke="black" d="M912.07,-720.23C926.94,-711.02 945.59,-699.47 961.71,-689.48"/>
<polygon fill="black" stroke="black" points="963.71,-692.36 970.37,-684.12 960.03,-686.41 963.71,-692.36"/>
</g>
<!-- perl&#45;base -->
<g id="node23" class="node">
<title>perl&#45;base</title>
<polygon fill="none" stroke="black" points="995.5,-540 912.5,-540 912.5,-504 995.5,-504 995.5,-540"/>
<text text-anchor="middle" x="954" y="-518.3" font-family="Times,serif" font-size="14.00">perl&#45;base</text>
</g>
<!-- perl&#45;&gt;perl&#45;base -->
<g id="edge45" class="edge">
<title>perl&#45;&gt;perl&#45;base</title>
<path fill="none" stroke="black" d="M885,-665C881.23,-621.77 946.25,-650.11 967,-612 977.44,-592.82 972.59,-568.03 966.05,-549.49"/>
<polygon fill="black" stroke="black" points="969.31,-548.22 962.43,-540.16 962.78,-550.75 969.31,-548.22"/>
</g>
<!-- perl&#45;modules&#45;5.38 -->
<g id="node24" class="node">
<title>perl&#45;modules&#45;5.38</title>
<polygon fill="none" stroke="black" points="958,-612 812,-612 812,-576 958,-576 958,-612"/>
<text text-anchor="middle" x="885" y="-590.3" font-family="Times,serif" font-size="14.00">perl&#45;modules&#45;5.38</text>
</g>
<!-- perl&#45;&gt;perl&#45;modules&#45;5.38 -->
<g id="edge46" class="edge">
<title>perl&#45;&gt;perl&#45;modules&#45;5.38</title>
<path fill="none" stroke="black" d="M885,-665C883.77,-650.91 883.66,-635.16 883.9,-622.17"/>
<polygon fill="black" stroke="black" points="887.41,-622.1 884.17,-612.01 880.41,-621.91 887.41,-622.1"/>
</g>
<!-- dpkg -->
<g id="node25" class="node">
<title>dpkg</title>
<polygon fill="none" stroke="black" points="869,-468 815,-468 815,-432 869,-432 869,-468"/>
<text text-anchor="middle" x="842" y="-446.3" font-family="Times,serif" font-size="14.00">dpkg</text>
</g>
<!-- perl&#45;&gt;dpkg -->
<g id="edge47" class="edge">
<title>perl&#45;&gt;dpkg</title>
<path fill="none" stroke="blue" d="M886.16,-719.95C886.85,-705.74 887.21,-684.97 885,-667"/>
<path fill="none" stroke="blue" d="M885,-665C879.7,-621.93 823.75,-650.11 803,-612 779.12,-568.13 805.59,-509.69 825.08,-476.63"/>
<polygon fill="blue" stroke="blue" points="828.12,-478.37 830.35,-468.02 822.15,-474.72 828.12,-478.37"/>
</g>
<!-- libbz2&#45;1.0&#45;&gt;libc6 -->
<g id="edge20" class="edge">
<title>libbz2&#45;1.0&#45;&gt;libc6</title>
<path fill="none" stroke="black" d="M696.45,-359.77C699.57,-345.61 702.87,-325.04 701,-307"/>
</g>
<!-- libgcrypt20&#45;&gt;libc6 -->
<g id="edge24" class="edge">
<title>libgcrypt20&#45;&gt;libc6</title>
<path fill="none" stroke="black" d="M224.23,-287.89C195.3,-274.75 166.86,-255.45 185,-235"/>
</g>
<!-- libgpg&#45;error0 -->
<g id="node20" class="node">
<title>libgpg&#45;error0</title>
<polygon fill="none" stroke="black" points="370,-252 258,-252 258,-216 370,-216 370,-252"/>
<text text-anchor="middle" x="314" y="-230.3" font-family="Times,serif" font-size="14.00">libgpg&#45;error0</text>
</g>
<!-- libgcrypt20&#45;&gt;libgpg&#45;error0 -->
<g id="edge25" class="edge">
<title>libgcrypt20&#45;&gt;libgpg&#45;error0</title>
<path fill="none" stroke="black" d="M281.63,-287.7C286.63,-279.56 292.69,-269.69 298.21,-260.7"/>
<polygon fill="black" stroke="black" points="301.24,-262.46 303.49,-252.1 295.28,-258.79 301.24,-262.46"/>
</g>
<!-- liblz4&#45;1&#45;&gt;libc6 -->
<g id="edge27" class="edge">
<title>liblz4&#45;1&#45;&gt;libc6</title>
<path fill="none" stroke="black" d="M471,-287.84C449.31,-274.22 427.28,-254.33 441,-235"/>
</g>
<!-- liblzma5&#45;&gt;libc6 -->
<g id="edge28" class="edge">
<title>liblzma5&#45;&gt;libc6</title>
<path fill="none" stroke="black" d="M659.96,-287.81C675.7,-275.06 692.19,-256.25 689,-235"/>
<path fill="none" stroke="black" d="M689,-233C686.47,-216.14 676.43,-200.23 666.18,-187.85"/>
<polygon fill="black" stroke="black" points="668.72,-185.44 659.49,-180.25 663.47,-190.07 668.72,-185.44"/>
</g>
<!-- libstdc++6&#45;&gt;libc6 -->
<g id="edge30" class="edge">
<title>libstdc++6&#45;&gt;libc6</title>
<path fill="none" stroke="black" d="M157.01,-219C161.72,-217.89 166.44,-216.87 171,-216 330.42,-185.68 523.8,-170.59 603.7,-165.28"/>
<polygon fill="black" stroke="black" points="604.01,-168.77 613.76,-164.63 603.56,-161.78 604.01,-168.77"/>
</g>
<!-- libstdc++6&#45;&gt;libgcc&#45;s1 -->
<g id="edge31" class="edge">
<title>libstdc++6&#45;&gt;libgcc&#45;s1</title>
<path fill="none" stroke="black" d="M110.08,-215.8C111.31,-201.48 111.96,-180.67 108,-163"/>
<path fill="none" stroke="black" d="M108,-161C103.82,-142.34 90.11,-126.53 76.08,-114.68"/>
<polygon fill="black" stroke="black" points="77.87,-111.64 67.86,-108.17 73.53,-117.12 77.87,-111.64"/>
</g>
<!-- libstdc++6&#45;&gt;gcc&#45;14&#45;base -->
<g id="edge29" class="edge">
<title>libstdc++6&#45;&gt;gcc&#45;14&#45;base</title>
<path fill="none" stroke="black" d="M108,-161C99.15,-121.53 98.73,-111.26 89,-72 86.87,-63.42 84.33,-54.13 81.94,-45.76"/>
<polygon fill="black" stroke="black" points="85.29,-44.74 79.15,-36.11 78.57,-46.69 85.29,-44.74"/>
</g>
<!-- libsystemd0&#45;&gt;libc6 -->
<g id="edge32" class="edge">
<title>libsystemd0&#45;&gt;libc6</title>
<path fill="none" stroke="black" d="M425.77,-359.76C425.64,-326.41 427.05,-254.66 441,-235"/>
</g>
<!-- libsystemd0&#45;&gt;libgcrypt20 -->
<g id="edge34" class="edge">
<title>libsystemd0&#45;&gt;libgcrypt20</title>
<path fill="none" stroke="black" d="M388.08,-359.88C366.99,-350.35 340.54,-338.41 318.13,-328.28"/>
<polygon fill="black" stroke="black" points="319.35,-324.99 308.79,-324.07 316.47,-331.37 319.35,-324.99"/>
</g>
<!-- libsystemd0&#45;&gt;liblz4&#45;1 -->
<g id="edge35" class="edge">
<title>libsystemd0&#45;&gt;liblz4&#45;1</title>
<path fill="none" stroke="black" d="M445.28,-359.7C454.92,-351.05 466.73,-340.45 477.23,-331.03"/>
<polygon fill="black" stroke="black" points="479.84,-333.39 484.94,-324.1 475.16,-328.18 479.84,-333.39"/>
</g>
<!-- libsystemd0&#45;&gt;liblzma5 -->
<g id="edge36" class="edge">
<title>libsystemd0&#45;&gt;liblzma5</title>
<path fill="none" stroke="black" d="M476.62,-359.97C509.75,-348.82 552.79,-334.33 585.49,-323.33"/>
<polygon fill="black" stroke="black" points="586.92,-326.54 595.28,-320.03 584.69,-319.9 586.92,-326.54"/>
</g>
<!-- libsystemd0&#45;&gt;libzstd1 -->
<g id="edge37" class="edge">
<title>libsystemd0&#45;&gt;libzstd1</title>
<path fill="none" stroke="black" d="M413.64,-359.7C407.77,-351.47 400.63,-341.48 394.16,-332.42"/>
<polygon fill="black" stroke="black" points="396.88,-330.21 388.22,-324.1 391.18,-334.28 396.88,-330.21"/>
</g>
<!-- libcap2 -->
<g id="node21" class="node">
<title>libcap2</title>
<polygon fill="none" stroke="black" points="203,-324 135,-324 135,-288 203,-288 203,-324"/>
<text text-anchor="middle" x="169" y="-302.3" font-family="Times,serif" font-size="14.00">libcap2</text>
</g>
<!-- libsystemd0&#45;&gt;libcap2 -->
<g id="edge33" class="edge">
<title>libsystemd0&#45;&gt;libcap2</title>
<path fill="none" stroke="black" d="M373.78,-363.48C369.12,-362.29 364.48,-361.12 360,-360 297.28,-344.3 278.22,-344.44 212.68,-324"/>
<polygon fill="black" stroke="black" points="213.7,-320.66 203.11,-320.98 211.59,-327.33 213.7,-320.66"/>
</g>
<!-- libudev1&#45;&gt;libc6 -->
<g id="edge40" class="edge">
<title>libudev1&#45;&gt;libc6</title>
<path fill="none" stroke="black" d="M149.96,-359.84C140.82,-350.3 130.83,-337.62 126,-324 120.65,-308.92 119.48,-302.61 126,-288 126.45,-286.99 184.27,-235.82 185,-235"/>
<path fill="none" stroke="black" d="M185,-233C237.64,-168.73 504.39,-162.66 603.69,-162.66"/>
<polygon fill="black" stroke="black" points="603.85,-166.16 613.86,-162.69 603.86,-159.16 603.85,-166.16"/>
</g>
<!-- libudev1&#45;&gt;libcap2 -->
<g id="edge41" class="edge">
<title>libudev1&#45;&gt;libcap2</title>
<path fill="none" stroke="black" d="M169,-359.7C169,-351.98 169,-342.71 169,-334.11"/>
<polygon fill="black" stroke="black" points="172.5,-334.1 169,-324.1 165.5,-334.1 172.5,-334.1"/>
</g>
<!-- libxxhash0&#45;&gt;libc6 -->
<g id="edge42" class="edge">
<title>libxxhash0&#45;&gt;libc6</title>
<path fill="none" stroke="black" d="M605.62,-215.7C611.14,-207.47 617.85,-197.48 623.93,-188.42"/>
<polygon fill="black" stroke="black" points="626.85,-190.36 629.52,-180.1 621.04,-186.46 626.85,-190.36"/>
</g>
<!-- libzstd1&#45;&gt;libc6 -->
<g id="edge39" class="edge">
<title>libzstd1&#45;&gt;libc6</title>
<path fill="none" stroke="black" d="M394.21,-287.99C408.08,-274.46 427.08,-254.61 441,-235"/>
<path fill="none" stroke="black" d="M441,-233C478.02,-180.85 556.99,-167.25 603.87,-163.89"/>
<polygon fill="black" stroke="black" points="604.15,-167.38 613.92,-163.29 603.73,-160.39 604.15,-167.38"/>
</g>
<!-- zlib1g&#45;&gt;libc6 -->
<g id="edge43" class="edge">
<title>zlib1g&#45;&gt;libc6</title>
<path fill="none" stroke="black" d="M756.59,-360C733.01,-344.42 702.52,-321.62 701,-307"/>
</g>
<!-- libgpg&#45;error0&#45;&gt;libc6 -->
<g id="edge26" class="edge">
<title>libgpg&#45;error0&#45;&gt;libc6</title>
<path fill="none" stroke="black" d="M370.21,-220.97C437.08,-206.65 546.83,-183.16 603.9,-170.94"/>
<polygon fill="black" stroke="black" points="604.88,-174.31 613.92,-168.8 603.41,-167.47 604.88,-174.31"/>
</g>
<!-- libcap2&#45;&gt;libc6 -->
<g id="edge38" class="edge">
<title>libcap2&#45;&gt;libc6</title>
<path fill="none" stroke="black" d="M168.51,-287.96C168.98,-272.36 172.09,-249.55 185,-235"/>
</g>
<!-- libperl5.38t64&#45;&gt;libc6 -->
<g id="edge49" class="edge">
<title>libperl5.38t64&#45;&gt;libc6</title>
<path fill="none" stroke="black" d="M1003.59,-647.73C1008.43,-633.38 1015.91,-612.54 1024,-595"/>
<path fill="none" stroke="black" d="M1024,-593C1051.51,-533.35 1016.86,-495.7 1065,-451"/>
</g>
<!-- libperl5.38t64&#45;&gt;libbz2&#45;1.0 -->
<g id="edge48" class="edge">
<title>libperl5.38t64&#45;&gt;libbz2&#45;1.0</title>
<path fill="none" stroke="black" d="M938.38,-652.32C884.44,-640.28 812.06,-622.51 803,-612 755.96,-557.43 804.21,-520.16 784,-451"/>
<path fill="none" stroke="black" d="M784,-449C777.76,-428.18 760.34,-412.45 742.31,-401.23"/>
<polygon fill="black" stroke="black" points="743.86,-398.08 733.46,-396.08 740.34,-404.13 743.86,-398.08"/>
</g>
<!-- libperl5.38t64&#45;&gt;zlib1g -->
<g id="edge55" class="edge">
<title>libperl5.38t64&#45;&gt;zlib1g</title>
<path fill="none" stroke="black" d="M784,-449C780.01,-435.33 779.67,-419.51 780.48,-406.37"/>
<polygon fill="black" stroke="black" points="783.99,-406.33 781.37,-396.07 777.02,-405.73 783.99,-406.33"/>
</g>
<!-- libperl5.38t64&#45;&gt;perl&#45;modules&#45;5.38 -->
<g id="edge54" class="edge">
<title>libperl5.38t64&#45;&gt;perl&#45;modules&#45;5.38</title>
<path fill="none" stroke="black" d="M970.36,-647.88C955.58,-638.72 937.21,-627.34 921.3,-617.48"/>
<polygon fill="black" stroke="black" points="923.09,-614.48 912.75,-612.19 919.41,-620.43 923.09,-614.48"/>
</g>
<!-- libcrypt1 -->
<g id="node26" class="node">
<title>libcrypt1</title>
<polygon fill="none" stroke="black" points="1275.5,-468 1194.5,-468 1194.5,-432 1275.5,-432 1275.5,-468"/>
<text text-anchor="middle" x="1235" y="-446.3" font-family="Times,serif" font-size="14.00">libcrypt1</text>
</g>
<!-- libperl5.38t64&#45;&gt;libcrypt1 -->
<g id="edge50" class="edge">
<title>libperl5.38t64&#45;&gt;libcrypt1</title>
<path fill="none" stroke="black" d="M1057.75,-659.45C1105.69,-653.1 1173.57,-639.72 1227,-612 1237.06,-606.78 1239.2,-604.06 1246,-595"/>
<path fill="none" stroke="black" d="M1246,-593C1249.38,-588.49 1242.37,-518.41 1238.05,-478.42"/>
<polygon fill="black" stroke="black" points="1241.51,-477.81 1236.94,-468.25 1234.55,-478.57 1241.51,-477.81"/>
</g>
<!-- libdb5.3t64 -->
<g id="node27" class="node">
<title>libdb5.3t64</title>
<polygon fill="none" stroke="black" points="1353.5,-540 1254.5,-540 1254.5,-504 1353.5,-504 1353.5,-540"/>
<text text-anchor="middle" x="1304" y="-518.3" font-family="Times,serif" font-size="14.00">libdb5.3t64</text>
</g>
<!-- libperl5.38t64&#45;&gt;libdb5.3t64 -->
<g id="edge51" class="edge">
<title>libperl5.38t64&#45;&gt;libdb5.3t64</title>
<path fill="none" stroke="black" d="M1246,-593C1257.54,-577.64 1271.22,-561.06 1282.39,-547.89"/>
<polygon fill="black" stroke="black" points="1285.15,-550.05 1288.99,-540.17 1279.83,-545.5 1285.15,-550.05"/>
</g>
<!-- libgdbm&#45;compat4t64 -->
<g id="node28" class="node">
<title>libgdbm&#45;compat4t64</title>
<polygon fill="none" stroke="black" points="1217.5,-612 1052.5,-612 1052.5,-576 1217.5,-576 1217.5,-612"/>
<text text-anchor="middle" x="1135" y="-590.3" font-family="Times,serif" font-size="14.00">libgdbm&#45;compat4t64</text>
</g>
<!-- libperl5.38t64&#45;&gt;libgdbm&#45;compat4t64 -->
<g id="edge52" class="edge">
<title>libperl5.38t64&#45;&gt;libgdbm&#45;compat4t64</title>
<path fill="none" stroke="black" d="M1031.51,-647.88C1049.84,-638.51 1072.74,-626.81 1092.33,-616.8"/>
<polygon fill="black" stroke="black" points="1094.04,-619.86 1101.36,-612.19 1090.86,-613.62 1094.04,-619.86"/>
</g>
<!-- libgdbm6t64 -->
<g id="node29" class="node">
<title>libgdbm6t64</title>
<polygon fill="none" stroke="black" points="1160,-540 1052,-540 1052,-504 1160,-504 1160,-540"/>
<text text-anchor="middle" x="1106" y="-518.3" font-family="Times,serif" font-size="14.00">libgdbm6t64</text>
</g>
<!-- libperl5.38t64&#45;&gt;libgdbm6t64 -->
<g id="edge53" class="edge">
<title>libperl5.38t64&#45;&gt;libgdbm6t64</title>
<path fill="none" stroke="black" d="M1024,-593C1032.94,-573.6 1050.21,-557.59 1066.6,-545.8"/>
<polygon fill="black" stroke="black" points="1068.76,-548.56 1075.04,-540.02 1064.81,-542.78 1068.76,-548.56"/>
</g>
<!-- perl&#45;base&#45;&gt;libc6 -->
<g id="edge64" class="edge">
<title>perl&#45;base&#45;&gt;libc6</title>
<path fill="none" stroke="blue" d="M988.07,-503.87C1011.28,-491.2 1041.88,-472.47 1065,-451"/>
<path fill="none" stroke="blue" d="M1065,-449C1124.88,-393.4 1217.27,-458.76 1235,-379"/>
<path fill="none" stroke="blue" d="M1235,-377C1259.98,-264.59 1137.94,-261.12 1032,-216 968.61,-189 763.44,-171.71 678.43,-165.54"/>
<polygon fill="blue" stroke="blue" points="678.43,-162.03 668.2,-164.81 677.93,-169.01 678.43,-162.03"/>
</g>
<!-- perl&#45;base&#45;&gt;dpkg -->
<g id="edge63" class="edge">
<title>perl&#45;base&#45;&gt;dpkg</title>
<path fill="none" stroke="blue" d="M926.6,-503.88C911.85,-494.66 893.47,-483.17 877.62,-473.26"/>
<polygon fill="blue" stroke="blue" points="879.45,-470.28 869.12,-467.95 875.74,-476.22 879.45,-470.28"/>
</g>
<!-- perl&#45;base&#45;&gt;libcrypt1 -->
<g id="edge65" class="edge">
<title>perl&#45;base&#45;&gt;libcrypt1</title>
<path fill="none" stroke="blue" d="M995.77,-510.6C1046.04,-498.07 1130.4,-477.06 1184.34,-463.62"/>
<polygon fill="blue" stroke="blue" points="1185.52,-466.93 1194.38,-461.12 1183.83,-460.14 1185.52,-466.93"/>
</g>
<!-- perl&#45;modules&#45;5.38&#45;&gt;perl&#45;base -->
<g id="edge61" class="edge">
<title>perl&#45;modules&#45;5.38&#45;&gt;perl&#45;base</title>
<path fill="none" stroke="black" d="M902.06,-575.7C910.5,-567.14 920.82,-556.66 930.04,-547.3"/>
<polygon fill="black" stroke="black" points="932.61,-549.68 937.14,-540.1 927.63,-544.77 932.61,-549.68"/>
</g>
<!-- perl&#45;modules&#45;5.38&#45;&gt;dpkg -->
<g id="edge62" class="edge">
<title>perl&#45;modules&#45;5.38&#45;&gt;dpkg</title>
<path fill="none" stroke="blue" d="M879.81,-575.87C872.45,-551.56 858.9,-506.82 850.18,-478.01"/>
<polygon fill="blue" stroke="blue" points="853.45,-476.75 847.21,-468.19 846.75,-478.77 853.45,-476.75"/>
</g>
<!-- dpkg&#45;&gt;libc6 -->
<g id="edge68" class="edge">
<title>dpkg&#45;&gt;libc6</title>
<path fill="none" stroke="blue" d="M842,-377C803.09,-318.85 708.22,-376.59 701,-307"/>
</g>
<!-- dpkg&#45;&gt;libbz2&#45;1.0 -->
<g id="edge67" class="edge">
<title>dpkg&#45;&gt;libbz2&#45;1.0</title>
<path fill="none" stroke="blue" d="M814.84,-436.32C793.43,-426.33 763.09,-412.17 737.92,-400.43"/>
<polygon fill="blue" stroke="blue" points="739.1,-397.12 728.56,-396.06 736.14,-403.46 739.1,-397.12"/>
</g>
<!-- dpkg&#45;&gt;liblzma5 -->
<g id="edge69" class="edge">
<title>dpkg&#45;&gt;liblzma5</title>
<path fill="none" stroke="blue" d="M846.96,-431.93C850.29,-416.73 852.41,-394.55 842,-379"/>
<path fill="none" stroke="blue" d="M842,-377C805.15,-321.93 688.3,-324.38 687,-324 685.55,-323.58 684.08,-323.14 682.6,-322.7"/>
<polygon fill="blue" stroke="blue" points="683.3,-319.25 672.72,-319.67 681.25,-325.95 683.3,-319.25"/>
</g>
<!-- dpkg&#45;&gt;libzstd1 -->
<g id="edge72" class="edge">
<title>dpkg&#45;&gt;libzstd1</title>
<path fill="none" stroke="blue" d="M814.84,-437.47C809.34,-435.43 803.54,-433.48 798,-432 698.06,-405.2 663.32,-436.23 568,-396 543.43,-385.63 543.43,-372.74 520,-360 489.12,-343.21 451.82,-329.65 422.92,-320.45"/>
<polygon fill="blue" stroke="blue" points="423.66,-317.01 413.07,-317.38 421.58,-323.69 423.66,-317.01"/>
</g>
<!-- dpkg&#45;&gt;zlib1g -->
<g id="edge73" class="edge">
<title>dpkg&#45;&gt;zlib1g</title>
<path fill="none" stroke="blue" d="M827.66,-431.7C820.71,-423.3 812.23,-413.07 804.6,-403.86"/>
<polygon fill="blue" stroke="blue" points="807.25,-401.57 798.17,-396.1 801.86,-406.04 807.25,-401.57"/>
</g>
<!-- tar -->
<g id="node30" class="node">
<title>tar</title>
<polygon fill="none" stroke="black" points="924,-396 870,-396 870,-360 924,-360 924,-396"/>
<text text-anchor="middle" x="897" y="-374.3" font-family="Times,serif" font-size="14.00">tar</text>
</g>
<!-- dpkg&#45;&gt;tar -->
<g id="edge66" class="edge">
<title>dpkg&#45;&gt;tar</title>
<path fill="none" stroke="black" d="M855.6,-431.7C862.12,-423.39 870.07,-413.28 877.25,-404.14"/>
<polygon fill="black" stroke="black" points="880.13,-406.13 883.56,-396.1 874.63,-401.81 880.13,-406.13"/>
</g>
<!-- libmd0 -->
<g id="node31" class="node">
<title>libmd0</title>
<polygon fill="none" stroke="black" points="1023,-252 957,-252 957,-216 1023,-216 1023,-252"/>
<text text-anchor="middle" x="990" y="-230.3" font-family="Times,serif" font-size="14.00">libmd0</text>
</g>
<!-- dpkg&#45;&gt;libmd0 -->
<g id="edge70" class="edge">
<title>dpkg&#45;&gt;libmd0</title>
<path fill="none" stroke="blue" d="M963,-377C974.03,-337.8 981.92,-291.24 986.23,-262.4"/>
<polygon fill="blue" stroke="blue" points="989.72,-262.67 987.7,-252.27 982.8,-261.66 989.72,-262.67"/>
</g>
<!-- libselinux1 -->
<g id="node32" class="node">
<title>libselinux1</title>
<polygon fill="none" stroke="black" points="934.5,-324 839.5,-324 839.5,-288 934.5,-288 934.5,-324"/>
<text text-anchor="middle" x="887" y="-302.3" font-family="Times,serif" font-size="14.00">libselinux1</text>
</g>
<!-- dpkg&#45;&gt;libselinux1 -->
<g id="edge71" class="edge">
<title>dpkg&#45;&gt;libselinux1</title>
<path fill="none" stroke="blue" d="M869.16,-444.25C901.26,-436.87 951.73,-419.07 963,-379"/>
<path fill="none" stroke="blue" d="M963,-377C968.55,-357.26 954,-341.2 936.18,-329.46"/>
<polygon fill="blue" stroke="blue" points="937.62,-326.23 927.25,-324.04 933.99,-332.22 937.62,-326.23"/>
</g>
<!-- libcrypt1&#45;&gt;libc6 -->
<g id="edge56" class="edge">
<title>libcrypt1&#45;&gt;libc6</title>
<path fill="none" stroke="black" d="M1232.94,-431.8C1231.72,-417.49 1231.07,-396.68 1235,-379"/>
</g>
<!-- libdb5.3t64&#45;&gt;libc6 -->
<g id="edge57" class="edge">
<title>libdb5.3t64&#45;&gt;libc6</title>
<path fill="none" stroke="black" d="M1305.27,-503.94C1306.02,-489.71 1306.42,-468.95 1304,-451"/>
</g>
<!-- libgdbm&#45;compat4t64&#45;&gt;libc6 -->
<g id="edge58" class="edge">
<title>libgdbm&#45;compat4t64&#45;&gt;libc6</title>
<path fill="none" stroke="black" d="M1156.16,-575.99C1201.65,-539.33 1304.64,-455.74 1304,-451"/>
<path fill="none" stroke="black" d="M1304,-449C1298.63,-405.65 1229.65,-422.36 1235,-379"/>
</g>
<!-- libgdbm&#45;compat4t64&#45;&gt;libgdbm6t64 -->
<g id="edge59" class="edge">
<title>libgdbm&#45;compat4t64&#45;&gt;libgdbm6t64</title>
<path fill="none" stroke="black" d="M1127.83,-575.7C1124.57,-567.81 1120.63,-558.3 1117,-549.55"/>
<polygon fill="black" stroke="black" points="1120.15,-548 1113.09,-540.1 1113.68,-550.68 1120.15,-548"/>
</g>
<!-- libgdbm6t64&#45;&gt;libc6 -->
<g id="edge60" class="edge">
<title>libgdbm6t64&#45;&gt;libc6</title>
<path fill="none" stroke="black" d="M1084.42,-503.85C1067.41,-488.38 1049,-465.85 1065,-451"/>
</g>
<!-- tar&#45;&gt;libc6 -->
<g id="edge75" class="edge">
<title>tar&#45;&gt;libc6</title>
<path fill="none" stroke="blue" d="M809,-305C790.42,-280.04 831.98,-255.97 809,-235"/>
<path fill="none" stroke="blue" d="M809,-233C800.63,-225.36 799.74,-221.79 790,-216 754.58,-194.97 709.5,-180.38 678.24,-171.91"/>
<polygon fill="blue" stroke="blue" points="678.77,-168.43 668.21,-169.28 676.99,-175.2 678.77,-168.43"/>
</g>
<!-- tar&#45;&gt;libselinux1 -->
<g id="edge76" class="edge">
<title>tar&#45;&gt;libselinux1</title>
<path fill="none" stroke="blue" d="M894.53,-359.7C893.43,-351.98 892.1,-342.71 890.87,-334.11"/>
<polygon fill="blue" stroke="blue" points="894.32,-333.51 889.44,-324.1 887.39,-334.5 894.32,-333.51"/>
</g>
<!-- libacl1 -->
<g id="node33" class="node">
<title>libacl1</title>
<polygon fill="none" stroke="black" points="781,-252 717,-252 717,-216 781,-216 781,-252"/>
<text text-anchor="middle" x="749" y="-230.3" font-family="Times,serif" font-size="14.00">libacl1</text>
</g>
<!-- tar&#45;&gt;libacl1 -->
<g id="edge74" class="edge">
<title>tar&#45;&gt;libacl1</title>
<path fill="none" stroke="blue" d="M869.63,-360.68C850.46,-348.07 825.44,-329.08 809,-307"/>
<path fill="none" stroke="blue" d="M809,-305C797.44,-289.48 783.42,-273 771.84,-259.94"/>
<polygon fill="blue" stroke="blue" points="774.26,-257.4 764.98,-252.28 769.05,-262.07 774.26,-257.4"/>
</g>
<!-- libmd0&#45;&gt;libc6 -->
<g id="edge81" class="edge">
<title>libmd0&#45;&gt;libc6</title>
<path fill="none" stroke="black" d="M956.76,-218.8C953.82,-217.77 950.87,-216.82 948,-216 852.76,-188.84 736.71,-173.42 678.33,-166.84"/>
<polygon fill="black" stroke="black" points="678.45,-163.33 668.12,-165.71 677.68,-170.29 678.45,-163.33"/>
</g>
<!-- libselinux1&#45;&gt;libc6 -->
<g id="edge78" class="edge">
<title>libselinux1&#45;&gt;libc6</title>
<path fill="none" stroke="black" d="M867.69,-287.83C851.85,-273.71 828.89,-253.15 809,-235"/>
</g>
<!-- libpcre2&#45;8&#45;0 -->
<g id="node34" class="node">
<title>libpcre2&#45;8&#45;0</title>
<polygon fill="none" stroke="black" points="939,-252 837,-252 837,-216 939,-216 939,-252"/>
<text text-anchor="middle" x="888" y="-230.3" font-family="Times,serif" font-size="14.00">libpcre2&#45;8&#45;0</text>
</g>
<!-- libselinux1&#45;&gt;libpcre2&#45;8&#45;0 -->
<g id="edge79" class="edge">
<title>libselinux1&#45;&gt;libpcre2&#45;8&#45;0</title>
<path fill="none" stroke="black" d="M887.25,-287.7C887.36,-279.98 887.49,-270.71 887.61,-262.11"/>
<polygon fill="black" stroke="black" points="891.11,-262.15 887.76,-252.1 884.11,-262.05 891.11,-262.15"/>
</g>
<!-- libacl1&#45;&gt;libc6 -->
<g id="edge77" class="edge">
<title>libacl1&#45;&gt;libc6</title>
<path fill="none" stroke="black" d="M722.58,-215.88C708.59,-206.81 691.22,-195.55 676.11,-185.76"/>
<polygon fill="black" stroke="black" points="677.82,-182.69 667.52,-180.19 674.01,-188.57 677.82,-182.69"/>
</g>
<!-- libpcre2&#45;8&#45;0&#45;&gt;libc6 -->
<g id="edge80" class="edge">
<title>libpcre2&#45;8&#45;0&#45;&gt;libc6</title>
<path fill="none" stroke="black" d="M836.82,-218.5C789.44,-205.07 720.12,-185.42 677.92,-173.46"/>
<polygon fill="black" stroke="black" points="678.64,-170.03 668.07,-170.67 676.73,-176.77 678.64,-170.03"/>
</g>
</g>
</svg>
