<?xml version="1.0" encoding="UTF-8" standalone="no"?>
<!DOCTYPE svg PUBLIC "-//W3C//DTD SVG 1.1//EN"
 "http://www.w3.org/Graphics/SVG/1.1/DTD/svg11.dtd">
<!-- Generated by graphviz version 2.43.0 (0)
 -->
<!-- Title: G Pages: 1 -->
<svg width="1865pt" height="908pt"
 viewBox="0.00 0.00 1865.24 908.00" xmlns="http://www.w3.org/2000/svg" xmlns:xlink="http://www.w3.org/1999/xlink">
<g id="graph0" class="graph" transform="scale(1 1) rotate(0) translate(4 904)">
<title>G</title>
<polygon fill="white" stroke="transparent" points="-4,4 -4,-904 1861.24,-904 1861.24,4 -4,4"/>
<!-- 1 -->
<g id="node1" class="node">
<title>1</title>
<ellipse fill="none" stroke="black" cx="994.24" cy="-882" rx="72.29" ry="18"/>
<text text-anchor="middle" x="994.24" y="-878.3" font-family="Times,serif" font-size="14.00">apt&#45;rdepends</text>
</g>
<!-- 2 -->
<g id="node2" class="node">
<title>2</title>
<ellipse fill="none" stroke="black" cx="1200.24" cy="-810" rx="79.09" ry="18"/>
<text text-anchor="middle" x="1200.24" y="-806.3" font-family="Times,serif" font-size="14.00">libapt&#45;pkg&#45;perl</text>
</g>
<!-- 1&#45;&gt;2 -->
<g id="edge16" class="edge">
<title>1&#45;&gt;2</title>
<path fill="none" stroke="black" d="M1035.43,-867C1067.95,-855.95 1113.51,-840.47 1148.49,-828.58"/>
<polygon fill="black" stroke="black" points="1149.72,-831.86 1158.06,-825.33 1147.46,-825.24 1149.72,-831.86"/>
</g>
<!-- 12 -->
<g id="node12" class="node">
<title>12</title>
<ellipse fill="none" stroke="black" cx="781.24" cy="-738" rx="29.5" ry="18"/>
<text text-anchor="middle" x="781.24" y="-734.3" font-family="Times,serif" font-size="14.00">perl</text>
</g>
<!-- 1&#45;&gt;12 -->
<g id="edge17" class="edge">
<title>1&#45;&gt;12</title>
<path fill="none" stroke="black" d="M970.22,-864.99C930.4,-838.44 850.96,-785.48 808.87,-757.42"/>
<polygon fill="black" stroke="black" points="810.75,-754.47 800.49,-751.83 806.87,-760.29 810.75,-754.47"/>
</g>
<!-- 3 -->
<g id="node3" class="node">
<title>3</title>
<ellipse fill="none" stroke="black" cx="1200.24" cy="-450" rx="87.99" ry="18"/>
<text text-anchor="middle" x="1200.24" y="-446.3" font-family="Times,serif" font-size="14.00">libapt&#45;pkg6.0t64</text>
</g>
<!-- 2&#45;&gt;3 -->
<g id="edge19" class="edge">
<title>2&#45;&gt;3</title>
<path fill="none" stroke="black" d="M1200.24,-791.95C1200.24,-765.29 1200.24,-712.11 1200.24,-667 1200.24,-667 1200.24,-667 1200.24,-593 1200.24,-553 1200.24,-506.65 1200.24,-478.08"/>
<polygon fill="black" stroke="black" points="1203.74,-478.05 1200.24,-468.05 1196.74,-478.05 1203.74,-478.05"/>
</g>
<!-- 2&#45;&gt;12 -->
<g id="edge18" class="edge">
<title>2&#45;&gt;12</title>
<path fill="none" stroke="black" d="M1138.42,-798.67C1050.54,-783.99 892.15,-757.53 819.51,-745.39"/>
<polygon fill="black" stroke="black" points="819.88,-741.91 809.44,-743.71 818.73,-748.81 819.88,-741.91"/>
</g>
<!-- 20 -->
<g id="node20" class="node">
<title>20</title>
<ellipse fill="none" stroke="black" cx="930.24" cy="-162" rx="33.29" ry="18"/>
<text text-anchor="middle" x="930.24" y="-158.3" font-family="Times,serif" font-size="14.00">libc6</text>
</g>
<!-- 2&#45;&gt;20 -->
<g id="edge20" class="edge">
<title>2&#45;&gt;20</title>
<path fill="none" stroke="black" d="M1272.29,-802.35C1404.23,-788.17 1671.24,-749.31 1671.24,-667 1671.24,-667 1671.24,-667 1671.24,-449 1671.24,-339.8 1679.26,-283.28 1593.24,-216 1544.54,-177.91 1113.29,-166.46 973.66,-163.73"/>
<polygon fill="black" stroke="black" points="973.42,-160.23 963.35,-163.54 973.28,-167.23 973.42,-160.23"/>
</g>
<!-- 21 -->
<g id="node21" class="node">
<title>21</title>
<ellipse fill="none" stroke="black" cx="1805.24" cy="-90" rx="51.99" ry="18"/>
<text text-anchor="middle" x="1805.24" y="-86.3" font-family="Times,serif" font-size="14.00">libgcc&#45;s1</text>
</g>
<!-- 2&#45;&gt;21 -->
<g id="edge21" class="edge">
<title>2&#45;&gt;21</title>
<path fill="none" stroke="black" d="M1279.25,-808.32C1453.46,-804.68 1855.24,-783.65 1855.24,-667 1855.24,-667 1855.24,-667 1855.24,-233 1855.24,-190.45 1835.02,-144.59 1820.3,-116.84"/>
<polygon fill="black" stroke="black" points="1823.23,-114.91 1815.36,-107.81 1817.09,-118.26 1823.23,-114.91"/>
</g>
<!-- 4 -->
<g id="node4" class="node">
<title>4</title>
<ellipse fill="none" stroke="black" cx="1019.24" cy="-234" rx="61.19" ry="18"/>
<text text-anchor="middle" x="1019.24" y="-230.3" font-family="Times,serif" font-size="14.00">libxxhash0</text>
</g>
<!-- 3&#45;&gt;4 -->
<g id="edge31" class="edge">
<title>3&#45;&gt;4</title>
<path fill="none" stroke="black" d="M1118.26,-443.43C1049.94,-436.91 960.23,-423.3 937.24,-396 906.32,-359.28 912.06,-330.04 935.24,-288 943.58,-272.87 958.27,-261.46 973.05,-253.18"/>
<polygon fill="black" stroke="black" points="974.94,-256.14 982.2,-248.43 971.72,-249.93 974.94,-256.14"/>
</g>
<!-- 5 -->
<g id="node5" class="node">
<title>5</title>
<ellipse fill="none" stroke="black" cx="1248.24" cy="-378" rx="67.69" ry="18"/>
<text text-anchor="middle" x="1248.24" y="-374.3" font-family="Times,serif" font-size="14.00">libsystemd0</text>
</g>
<!-- 3&#45;&gt;5 -->
<g id="edge29" class="edge">
<title>3&#45;&gt;5</title>
<path fill="none" stroke="black" d="M1211.86,-432.05C1217.58,-423.71 1224.59,-413.49 1230.93,-404.25"/>
<polygon fill="black" stroke="black" points="1233.96,-406.02 1236.73,-395.79 1228.19,-402.06 1233.96,-406.02"/>
</g>
<!-- 7 -->
<g id="node7" class="node">
<title>7</title>
<ellipse fill="none" stroke="black" cx="1224.24" cy="-306" rx="44.69" ry="18"/>
<text text-anchor="middle" x="1224.24" y="-302.3" font-family="Times,serif" font-size="14.00">liblz4&#45;1</text>
</g>
<!-- 3&#45;&gt;7 -->
<g id="edge26" class="edge">
<title>3&#45;&gt;7</title>
<path fill="none" stroke="black" d="M1187.53,-431.99C1175.63,-413.86 1161.1,-384.47 1171.24,-360 1176.22,-347.98 1185.4,-337.26 1194.73,-328.66"/>
<polygon fill="black" stroke="black" points="1197.23,-331.14 1202.52,-321.96 1192.66,-325.83 1197.23,-331.14"/>
</g>
<!-- 8 -->
<g id="node8" class="node">
<title>8</title>
<ellipse fill="none" stroke="black" cx="997.24" cy="-378" rx="50.89" ry="18"/>
<text text-anchor="middle" x="997.24" y="-374.3" font-family="Times,serif" font-size="14.00">libudev1</text>
</g>
<!-- 3&#45;&gt;8 -->
<g id="edge30" class="edge">
<title>3&#45;&gt;8</title>
<path fill="none" stroke="black" d="M1157.19,-434.15C1123.4,-422.5 1076.5,-406.33 1042.22,-394.51"/>
<polygon fill="black" stroke="black" points="1043.06,-391.1 1032.46,-391.15 1040.78,-397.71 1043.06,-391.1"/>
</g>
<!-- 9 -->
<g id="node9" class="node">
<title>9</title>
<ellipse fill="none" stroke="black" cx="1503.24" cy="-306" rx="64.19" ry="18"/>
<text text-anchor="middle" x="1503.24" y="-302.3" font-family="Times,serif" font-size="14.00">libgcrypt20</text>
</g>
<!-- 3&#45;&gt;9 -->
<g id="edge25" class="edge">
<title>3&#45;&gt;9</title>
<path fill="none" stroke="black" d="M1259.73,-436.68C1295.48,-428 1341.25,-414.59 1379.24,-396 1415.65,-378.18 1452.82,-349.88 1476.84,-329.99"/>
<polygon fill="black" stroke="black" points="1479.36,-332.44 1484.77,-323.33 1474.86,-327.08 1479.36,-332.44"/>
</g>
<!-- 11 -->
<g id="node11" class="node">
<title>11</title>
<ellipse fill="none" stroke="black" cx="1725.24" cy="-234" rx="63.89" ry="18"/>
<text text-anchor="middle" x="1725.24" y="-230.3" font-family="Times,serif" font-size="14.00">libstdc++6</text>
</g>
<!-- 3&#45;&gt;11 -->
<g id="edge28" class="edge">
<title>3&#45;&gt;11</title>
<path fill="none" stroke="black" d="M1285.91,-445.83C1389.42,-440.66 1556.27,-427.58 1609.24,-396 1662.12,-364.47 1697.7,-298.51 1714.36,-261.55"/>
<polygon fill="black" stroke="black" points="1717.76,-262.51 1718.56,-251.95 1711.35,-259.71 1717.76,-262.51"/>
</g>
<!-- 19 -->
<g id="node19" class="node">
<title>19</title>
<ellipse fill="none" stroke="black" cx="566.24" cy="-378" rx="56.59" ry="18"/>
<text text-anchor="middle" x="566.24" y="-374.3" font-family="Times,serif" font-size="14.00">libbz2&#45;1.0</text>
</g>
<!-- 3&#45;&gt;19 -->
<g id="edge22" class="edge">
<title>3&#45;&gt;19</title>
<path fill="none" stroke="black" d="M1115.48,-445.3C1003.98,-439.48 802.25,-425.63 632.24,-396 627.2,-395.12 621.97,-394.05 616.77,-392.89"/>
<polygon fill="black" stroke="black" points="617.4,-389.44 606.86,-390.54 615.79,-396.25 617.4,-389.44"/>
</g>
<!-- 3&#45;&gt;20 -->
<g id="edge23" class="edge">
<title>3&#45;&gt;20</title>
<path fill="none" stroke="black" d="M1264.26,-437.64C1362.36,-418.7 1542.15,-377.42 1576.24,-324 1586.03,-308.66 1590.72,-233.4 1574.24,-216 1533.03,-172.49 1111.93,-164.69 973.84,-163.3"/>
<polygon fill="black" stroke="black" points="973.66,-159.8 963.63,-163.2 973.6,-166.8 973.66,-159.8"/>
</g>
<!-- 3&#45;&gt;21 -->
<g id="edge24" class="edge">
<title>3&#45;&gt;21</title>
<path fill="none" stroke="black" d="M1287.01,-446.97C1456.95,-440.63 1817.24,-414.51 1817.24,-307 1817.24,-307 1817.24,-307 1817.24,-233 1817.24,-192.85 1812.42,-146.55 1808.89,-118.02"/>
<polygon fill="black" stroke="black" points="1812.35,-117.49 1807.61,-108.01 1805.4,-118.37 1812.35,-117.49"/>
</g>
<!-- 23 -->
<g id="node23" class="node">
<title>23</title>
<ellipse fill="none" stroke="black" cx="452.24" cy="-378" rx="38.99" ry="18"/>
<text text-anchor="middle" x="452.24" y="-374.3" font-family="Times,serif" font-size="14.00">zlib1g</text>
</g>
<!-- 3&#45;&gt;23 -->
<g id="edge33" class="edge">
<title>3&#45;&gt;23</title>
<path fill="none" stroke="black" d="M1115.14,-445.38C955.18,-438.1 615.39,-420.3 500.24,-396 497,-395.32 493.67,-394.47 490.36,-393.52"/>
<polygon fill="black" stroke="black" points="491.16,-390.1 480.57,-390.42 489.05,-396.77 491.16,-390.1"/>
</g>
<!-- 29 -->
<g id="node29" class="node">
<title>29</title>
<ellipse fill="none" stroke="black" cx="1373.24" cy="-306" rx="48.19" ry="18"/>
<text text-anchor="middle" x="1373.24" y="-302.3" font-family="Times,serif" font-size="14.00">libzstd1</text>
</g>
<!-- 3&#45;&gt;29 -->
<g id="edge32" class="edge">
<title>3&#45;&gt;29</title>
<path fill="none" stroke="black" d="M1275.62,-440.56C1305.49,-433.38 1337.57,-420.2 1358.24,-396 1372.67,-379.11 1375.72,-353.64 1375.57,-334.27"/>
<polygon fill="black" stroke="black" points="1379.06,-334.09 1375.2,-324.22 1372.07,-334.34 1379.06,-334.09"/>
</g>
<!-- 30 -->
<g id="node30" class="node">
<title>30</title>
<ellipse fill="none" stroke="black" cx="1111.24" cy="-306" rx="50.09" ry="18"/>
<text text-anchor="middle" x="1111.24" y="-302.3" font-family="Times,serif" font-size="14.00">liblzma5</text>
</g>
<!-- 3&#45;&gt;30 -->
<g id="edge27" class="edge">
<title>3&#45;&gt;30</title>
<path fill="none" stroke="black" d="M1187.89,-432.05C1180.52,-421.76 1171.1,-408.29 1163.24,-396 1149.85,-375.08 1135.7,-350.68 1125.54,-332.72"/>
<polygon fill="black" stroke="black" points="1128.57,-330.97 1120.62,-323.97 1122.47,-334.41 1128.57,-330.97"/>
</g>
<!-- 4&#45;&gt;20 -->
<g id="edge34" class="edge">
<title>4&#45;&gt;20</title>
<path fill="none" stroke="black" d="M998.6,-216.76C986.01,-206.86 969.81,-194.12 956.34,-183.52"/>
<polygon fill="black" stroke="black" points="958.38,-180.68 948.36,-177.25 954.05,-186.18 958.38,-180.68"/>
</g>
<!-- 6 -->
<g id="node6" class="node">
<title>6</title>
<ellipse fill="none" stroke="black" cx="999.24" cy="-306" rx="44.39" ry="18"/>
<text text-anchor="middle" x="999.24" y="-302.3" font-family="Times,serif" font-size="14.00">libcap2</text>
</g>
<!-- 5&#45;&gt;6 -->
<g id="edge36" class="edge">
<title>5&#45;&gt;6</title>
<path fill="none" stroke="black" d="M1201.34,-364.97C1161.52,-354.6 1102.95,-338.98 1052.24,-324 1048.94,-323.03 1045.54,-321.99 1042.12,-320.94"/>
<polygon fill="black" stroke="black" points="1043.12,-317.58 1032.53,-317.94 1041.03,-324.27 1043.12,-317.58"/>
</g>
<!-- 5&#45;&gt;7 -->
<g id="edge38" class="edge">
<title>5&#45;&gt;7</title>
<path fill="none" stroke="black" d="M1242.43,-360.05C1239.73,-352.18 1236.45,-342.62 1233.43,-333.79"/>
<polygon fill="black" stroke="black" points="1236.72,-332.6 1230.16,-324.28 1230.1,-334.87 1236.72,-332.6"/>
</g>
<!-- 5&#45;&gt;9 -->
<g id="edge37" class="edge">
<title>5&#45;&gt;9</title>
<path fill="none" stroke="black" d="M1293.54,-364.57C1337,-352.63 1402.69,-334.6 1448.94,-321.91"/>
<polygon fill="black" stroke="black" points="1450.08,-325.22 1458.79,-319.2 1448.22,-318.47 1450.08,-325.22"/>
</g>
<!-- 5&#45;&gt;20 -->
<g id="edge35" class="edge">
<title>5&#45;&gt;20</title>
<path fill="none" stroke="black" d="M1261.57,-360.12C1274.25,-341.85 1289.82,-312.1 1278.24,-288 1256.05,-241.83 1234.62,-237.76 1188.24,-216 1117.41,-182.77 1026.02,-170.28 973.18,-165.66"/>
<polygon fill="black" stroke="black" points="973.4,-162.16 963.15,-164.83 972.83,-169.14 973.4,-162.16"/>
</g>
<!-- 5&#45;&gt;29 -->
<g id="edge40" class="edge">
<title>5&#45;&gt;29</title>
<path fill="none" stroke="black" d="M1275.98,-361.46C1294.57,-351.06 1319.17,-337.28 1338.98,-326.19"/>
<polygon fill="black" stroke="black" points="1340.69,-329.24 1347.7,-321.3 1337.27,-323.13 1340.69,-329.24"/>
</g>
<!-- 5&#45;&gt;30 -->
<g id="edge39" class="edge">
<title>5&#45;&gt;30</title>
<path fill="none" stroke="black" d="M1218.51,-361.81C1197.86,-351.26 1170.18,-337.12 1148.12,-325.84"/>
<polygon fill="black" stroke="black" points="1149.54,-322.64 1139.04,-321.21 1146.35,-328.87 1149.54,-322.64"/>
</g>
<!-- 6&#45;&gt;20 -->
<g id="edge41" class="edge">
<title>6&#45;&gt;20</title>
<path fill="none" stroke="black" d="M1030.95,-293.41C1065.58,-280.43 1116.87,-260.16 1122.24,-252 1131.04,-238.63 1131.93,-228.73 1122.24,-216 1104.16,-192.25 1023.18,-176.44 972.33,-168.65"/>
<polygon fill="black" stroke="black" points="972.69,-165.16 962.28,-167.15 971.66,-172.09 972.69,-165.16"/>
</g>
<!-- 7&#45;&gt;20 -->
<g id="edge42" class="edge">
<title>7&#45;&gt;20</title>
<path fill="none" stroke="black" d="M1215.96,-288.06C1205.12,-267.71 1184.16,-234.07 1156.24,-216 1099.98,-179.59 1021.44,-168.12 973.31,-164.55"/>
<polygon fill="black" stroke="black" points="973.44,-161.05 963.23,-163.89 972.98,-168.04 973.44,-161.05"/>
</g>
<!-- 8&#45;&gt;6 -->
<g id="edge44" class="edge">
<title>8&#45;&gt;6</title>
<path fill="none" stroke="black" d="M997.73,-359.7C997.96,-351.98 998.22,-342.71 998.47,-334.11"/>
<polygon fill="black" stroke="black" points="1001.96,-334.2 998.75,-324.1 994.97,-334 1001.96,-334.2"/>
</g>
<!-- 8&#45;&gt;20 -->
<g id="edge43" class="edge">
<title>8&#45;&gt;20</title>
<path fill="none" stroke="black" d="M977.16,-361.37C955.89,-342.92 927.74,-311.74 946.24,-288 986.53,-236.31 1048.95,-303.69 1089.24,-252 1099.08,-239.38 1098.6,-228.98 1089.24,-216 1063.11,-179.75 1011.12,-167.92 973.69,-164.26"/>
<polygon fill="black" stroke="black" points="973.81,-160.75 963.56,-163.42 973.24,-167.73 973.81,-160.75"/>
</g>
<!-- 10 -->
<g id="node10" class="node">
<title>10</title>
<ellipse fill="none" stroke="black" cx="1492.24" cy="-234" rx="72.59" ry="18"/>
<text text-anchor="middle" x="1492.24" y="-230.3" font-family="Times,serif" font-size="14.00">libgpg&#45;error0</text>
</g>
<!-- 9&#45;&gt;10 -->
<g id="edge46" class="edge">
<title>9&#45;&gt;10</title>
<path fill="none" stroke="black" d="M1500.52,-287.7C1499.31,-279.98 1497.85,-270.71 1496.5,-262.11"/>
<polygon fill="black" stroke="black" points="1499.94,-261.44 1494.93,-252.1 1493.02,-262.53 1499.94,-261.44"/>
</g>
<!-- 9&#45;&gt;20 -->
<g id="edge45" class="edge">
<title>9&#45;&gt;20</title>
<path fill="none" stroke="black" d="M1476,-289.59C1431.97,-264.74 1349.34,-218.32 1342.24,-216 1212.8,-173.61 1050.1,-164.92 973.67,-163.28"/>
<polygon fill="black" stroke="black" points="973.54,-159.77 963.48,-163.09 973.41,-166.77 973.54,-159.77"/>
</g>
<!-- 10&#45;&gt;20 -->
<g id="edge47" class="edge">
<title>10&#45;&gt;20</title>
<path fill="none" stroke="black" d="M1436.89,-222.12C1424.83,-219.93 1412.13,-217.77 1400.24,-216 1243.29,-192.68 1055.49,-174.37 972.84,-166.79"/>
<polygon fill="black" stroke="black" points="973.1,-163.3 962.82,-165.88 972.46,-170.27 973.1,-163.3"/>
</g>
<!-- 11&#45;&gt;20 -->
<g id="edge49" class="edge">
<title>11&#45;&gt;20</title>
<path fill="none" stroke="black" d="M1678.41,-221.67C1668.19,-219.52 1657.39,-217.47 1647.24,-216 1393.55,-179.17 1085.45,-167.32 973.51,-164.08"/>
<polygon fill="black" stroke="black" points="973.39,-160.57 963.29,-163.79 973.19,-167.57 973.39,-160.57"/>
</g>
<!-- 11&#45;&gt;21 -->
<g id="edge50" class="edge">
<title>11&#45;&gt;21</title>
<path fill="none" stroke="black" d="M1734.73,-216.15C1748.56,-191.6 1774.38,-145.77 1790.64,-116.91"/>
<polygon fill="black" stroke="black" points="1793.9,-118.26 1795.76,-107.82 1787.8,-114.82 1793.9,-118.26"/>
</g>
<!-- 22 -->
<g id="node22" class="node">
<title>22</title>
<ellipse fill="none" stroke="black" cx="1765.24" cy="-18" rx="65.79" ry="18"/>
<text text-anchor="middle" x="1765.24" y="-14.3" font-family="Times,serif" font-size="14.00">gcc&#45;14&#45;base</text>
</g>
<!-- 11&#45;&gt;22 -->
<g id="edge48" class="edge">
<title>11&#45;&gt;22</title>
<path fill="none" stroke="black" d="M1725.81,-215.82C1727.11,-186.08 1731.28,-123.3 1744.24,-72 1746.47,-63.17 1749.81,-53.84 1753.17,-45.52"/>
<polygon fill="black" stroke="black" points="1756.4,-46.86 1757.07,-36.29 1749.95,-44.14 1756.4,-46.86"/>
</g>
<!-- 13 -->
<g id="node13" class="node">
<title>13</title>
<ellipse fill="none" stroke="black" cx="390.24" cy="-666" rx="77.19" ry="18"/>
<text text-anchor="middle" x="390.24" y="-662.3" font-family="Times,serif" font-size="14.00">libperl5.38t64</text>
</g>
<!-- 12&#45;&gt;13 -->
<g id="edge54" class="edge">
<title>12&#45;&gt;13</title>
<path fill="none" stroke="black" d="M753.43,-732.02C692.77,-721.16 546.98,-695.06 459.67,-679.43"/>
<polygon fill="black" stroke="black" points="460.05,-675.94 449.59,-677.62 458.81,-682.83 460.05,-675.94"/>
</g>
<!-- 17 -->
<g id="node17" class="node">
<title>17</title>
<ellipse fill="none" stroke="black" cx="677.24" cy="-594" rx="94.78" ry="18"/>
<text text-anchor="middle" x="677.24" y="-590.3" font-family="Times,serif" font-size="14.00">perl&#45;modules&#45;5.38</text>
</g>
<!-- 12&#45;&gt;17 -->
<g id="edge53" class="edge">
<title>12&#45;&gt;17</title>
<path fill="none" stroke="black" d="M769.71,-721.26C751.81,-696.81 717.14,-649.49 695.72,-620.23"/>
<polygon fill="black" stroke="black" points="698.52,-618.13 689.79,-612.13 692.87,-622.27 698.52,-618.13"/>
</g>
<!-- 18 -->
<g id="node18" class="node">
<title>18</title>
<ellipse fill="none" stroke="black" cx="723.24" cy="-450" rx="33.6" ry="18"/>
<text text-anchor="middle" x="723.24" y="-446.3" font-family="Times,serif" font-size="14.00">dpkg</text>
</g>
<!-- 12&#45;&gt;18 -->
<g id="edge51" class="edge">
<title>12&#45;&gt;18</title>
<path fill="none" stroke="black" d="M783.64,-719.82C787.26,-690.09 792.57,-627.31 781.24,-576 773.1,-539.13 752.95,-500.21 738.69,-475.78"/>
<polygon fill="black" stroke="black" points="741.68,-473.96 733.56,-467.16 735.67,-477.54 741.68,-473.96"/>
</g>
<!-- 31 -->
<g id="node31" class="node">
<title>31</title>
<ellipse fill="none" stroke="black" cx="586.24" cy="-522" rx="53.89" ry="18"/>
<text text-anchor="middle" x="586.24" y="-518.3" font-family="Times,serif" font-size="14.00">perl&#45;base</text>
</g>
<!-- 12&#45;&gt;31 -->
<g id="edge52" class="edge">
<title>12&#45;&gt;31</title>
<path fill="none" stroke="black" d="M754.75,-730.25C708.14,-716.78 612.66,-681.67 573.24,-612 562.42,-592.88 567.42,-567.89 574.12,-549.26"/>
<polygon fill="black" stroke="black" points="577.4,-550.49 577.82,-539.9 570.89,-547.92 577.4,-550.49"/>
</g>
<!-- 14 -->
<g id="node14" class="node">
<title>14</title>
<ellipse fill="none" stroke="black" cx="107.24" cy="-594" rx="107.48" ry="18"/>
<text text-anchor="middle" x="107.24" y="-590.3" font-family="Times,serif" font-size="14.00">libgdbm&#45;compat4t64</text>
</g>
<!-- 13&#45;&gt;14 -->
<g id="edge59" class="edge">
<title>13&#45;&gt;14</title>
<path fill="none" stroke="black" d="M339.32,-652.4C293.37,-641.04 225.43,-624.23 174.92,-611.74"/>
<polygon fill="black" stroke="black" points="175.61,-608.31 165.07,-609.3 173.93,-615.1 175.61,-608.31"/>
</g>
<!-- 15 -->
<g id="node15" class="node">
<title>15</title>
<ellipse fill="none" stroke="black" cx="107.24" cy="-522" rx="70.39" ry="18"/>
<text text-anchor="middle" x="107.24" y="-518.3" font-family="Times,serif" font-size="14.00">libgdbm6t64</text>
</g>
<!-- 13&#45;&gt;15 -->
<g id="edge60" class="edge">
<title>13&#45;&gt;15</title>
<path fill="none" stroke="black" d="M361.85,-649.19C328.84,-630.96 272.57,-600.39 223.24,-576 199.47,-564.25 172.55,-551.89 150.63,-542.07"/>
<polygon fill="black" stroke="black" points="151.81,-538.76 141.25,-537.88 148.96,-545.15 151.81,-538.76"/>
</g>
<!-- 16 -->
<g id="node16" class="node">
<title>16</title>
<ellipse fill="none" stroke="black" cx="260.24" cy="-522" rx="64.19" ry="18"/>
<text text-anchor="middle" x="260.24" y="-518.3" font-family="Times,serif" font-size="14.00">libdb5.3t64</text>
</g>
<!-- 13&#45;&gt;16 -->
<g id="edge58" class="edge">
<title>13&#45;&gt;16</title>
<path fill="none" stroke="black" d="M373.13,-648.05C362.87,-637.76 349.64,-624.29 338.24,-612 318.37,-590.58 296.51,-565.49 280.99,-547.42"/>
<polygon fill="black" stroke="black" points="283.51,-544.97 274.34,-539.65 278.19,-549.52 283.51,-544.97"/>
</g>
<!-- 13&#45;&gt;17 -->
<g id="edge62" class="edge">
<title>13&#45;&gt;17</title>
<path fill="none" stroke="black" d="M441.55,-652.49C489.11,-640.88 560.11,-623.57 611.74,-610.98"/>
<polygon fill="black" stroke="black" points="612.59,-614.37 621.47,-608.6 610.93,-607.57 612.59,-614.37"/>
</g>
<!-- 13&#45;&gt;19 -->
<g id="edge55" class="edge">
<title>13&#45;&gt;19</title>
<path fill="none" stroke="black" d="M400.72,-647.97C430.38,-599.78 514.99,-462.28 550.38,-404.78"/>
<polygon fill="black" stroke="black" points="553.55,-406.3 555.81,-395.94 547.59,-402.63 553.55,-406.3"/>
</g>
<!-- 13&#45;&gt;20 -->
<g id="edge56" class="edge">
<title>13&#45;&gt;20</title>
<path fill="none" stroke="black" d="M388.27,-647.86C379.97,-571.95 351.51,-267.39 422.24,-216 459.5,-188.93 770.88,-170.89 886.9,-165.05"/>
<polygon fill="black" stroke="black" points="887.37,-168.53 897.18,-164.54 887.02,-161.54 887.37,-168.53"/>
</g>
<!-- 13&#45;&gt;23 -->
<g id="edge61" class="edge">
<title>13&#45;&gt;23</title>
<path fill="none" stroke="black" d="M395.02,-647.87C397.85,-637.52 401.41,-624.04 404.24,-612 421.65,-537.87 438.88,-449.66 447.16,-406.1"/>
<polygon fill="black" stroke="black" points="450.65,-406.5 449.07,-396.03 443.77,-405.2 450.65,-406.5"/>
</g>
<!-- 32 -->
<g id="node32" class="node">
<title>32</title>
<ellipse fill="none" stroke="black" cx="309.24" cy="-450" rx="52.79" ry="18"/>
<text text-anchor="middle" x="309.24" y="-446.3" font-family="Times,serif" font-size="14.00">libcrypt1</text>
</g>
<!-- 13&#45;&gt;32 -->
<g id="edge57" class="edge">
<title>13&#45;&gt;32</title>
<path fill="none" stroke="black" d="M384.72,-647.9C375.04,-618.3 354.06,-555.71 333.24,-504 329.68,-495.15 325.48,-485.62 321.59,-477.11"/>
<polygon fill="black" stroke="black" points="324.77,-475.63 317.4,-468.03 318.42,-478.57 324.77,-475.63"/>
</g>
<!-- 14&#45;&gt;15 -->
<g id="edge64" class="edge">
<title>14&#45;&gt;15</title>
<path fill="none" stroke="black" d="M107.24,-575.7C107.24,-567.98 107.24,-558.71 107.24,-550.11"/>
<polygon fill="black" stroke="black" points="110.74,-550.1 107.24,-540.1 103.74,-550.1 110.74,-550.1"/>
</g>
<!-- 14&#45;&gt;20 -->
<g id="edge63" class="edge">
<title>14&#45;&gt;20</title>
<path fill="none" stroke="black" d="M71.43,-576.79C55.91,-568.02 38.89,-555.73 28.24,-540 5.57,-506.51 9.24,-491.45 9.24,-451 9.24,-451 9.24,-451 9.24,-305 9.24,-223.63 91.23,-239.16 169.24,-216 305.2,-175.64 746.3,-165.72 886.82,-163.55"/>
<polygon fill="black" stroke="black" points="887.23,-167.04 897.18,-163.4 887.13,-160.05 887.23,-167.04"/>
</g>
<!-- 15&#45;&gt;20 -->
<g id="edge65" class="edge">
<title>15&#45;&gt;20</title>
<path fill="none" stroke="black" d="M115.74,-503.99C128.01,-477.82 149.24,-425.79 149.24,-379 149.24,-379 149.24,-379 149.24,-305 149.24,-247.14 191.29,-239.32 244.24,-216 360.12,-164.95 754.56,-162.11 886.7,-162.64"/>
<polygon fill="black" stroke="black" points="886.83,-166.14 896.84,-162.68 886.86,-159.14 886.83,-166.14"/>
</g>
<!-- 16&#45;&gt;20 -->
<g id="edge66" class="edge">
<title>16&#45;&gt;20</title>
<path fill="none" stroke="black" d="M253.76,-503.79C244.41,-477.36 228.24,-424.99 228.24,-379 228.24,-379 228.24,-379 228.24,-305 228.24,-252.7 258.63,-239.74 305.24,-216 407.07,-164.14 762.03,-161.69 886.61,-162.49"/>
<polygon fill="black" stroke="black" points="886.88,-165.99 896.91,-162.57 886.93,-158.99 886.88,-165.99"/>
</g>
<!-- 17&#45;&gt;18 -->
<g id="edge67" class="edge">
<title>17&#45;&gt;18</title>
<path fill="none" stroke="black" d="M682.79,-575.87C690.66,-551.56 705.16,-506.82 714.49,-478.01"/>
<polygon fill="black" stroke="black" points="717.92,-478.78 717.67,-468.19 711.26,-476.62 717.92,-478.78"/>
</g>
<!-- 17&#45;&gt;31 -->
<g id="edge68" class="edge">
<title>17&#45;&gt;31</title>
<path fill="none" stroke="black" d="M655.67,-576.41C643.52,-567.06 628.17,-555.25 615,-545.12"/>
<polygon fill="black" stroke="black" points="616.77,-542.07 606.71,-538.75 612.51,-547.62 616.77,-542.07"/>
</g>
<!-- 18&#45;&gt;19 -->
<g id="edge69" class="edge">
<title>18&#45;&gt;19</title>
<path fill="none" stroke="black" d="M698.02,-437.75C673.48,-426.82 635.81,-410.02 607.02,-397.18"/>
<polygon fill="black" stroke="black" points="608.19,-393.87 597.63,-392.99 605.34,-400.26 608.19,-393.87"/>
</g>
<!-- 18&#45;&gt;20 -->
<g id="edge70" class="edge">
<title>18&#45;&gt;20</title>
<path fill="none" stroke="black" d="M740.53,-434.49C775.68,-404.13 855.97,-330.18 901.24,-252 912.53,-232.51 920.09,-208.04 924.66,-189.7"/>
<polygon fill="black" stroke="black" points="928.07,-190.48 926.95,-179.95 921.25,-188.88 928.07,-190.48"/>
</g>
<!-- 18&#45;&gt;23 -->
<g id="edge75" class="edge">
<title>18&#45;&gt;23</title>
<path fill="none" stroke="black" d="M692.31,-442.74C649,-433.74 567.99,-415.99 500.24,-396 497.28,-395.13 494.24,-394.18 491.19,-393.19"/>
<polygon fill="black" stroke="black" points="492.12,-389.81 481.52,-389.93 489.88,-396.44 492.12,-389.81"/>
</g>
<!-- 24 -->
<g id="node24" class="node">
<title>24</title>
<ellipse fill="none" stroke="black" cx="761.24" cy="-306" rx="61.99" ry="18"/>
<text text-anchor="middle" x="761.24" y="-302.3" font-family="Times,serif" font-size="14.00">libselinux1</text>
</g>
<!-- 18&#45;&gt;24 -->
<g id="edge73" class="edge">
<title>18&#45;&gt;24</title>
<path fill="none" stroke="black" d="M727.75,-432.15C734.23,-407.94 746.24,-363.05 753.98,-334.13"/>
<polygon fill="black" stroke="black" points="757.42,-334.83 756.62,-324.27 750.65,-333.02 757.42,-334.83"/>
</g>
<!-- 26 -->
<g id="node26" class="node">
<title>26</title>
<ellipse fill="none" stroke="black" cx="668.24" cy="-378" rx="27" ry="18"/>
<text text-anchor="middle" x="668.24" y="-374.3" font-family="Times,serif" font-size="14.00">tar</text>
</g>
<!-- 18&#45;&gt;26 -->
<g id="edge76" class="edge">
<title>18&#45;&gt;26</title>
<path fill="none" stroke="black" d="M710.76,-433.12C703.63,-424.04 694.55,-412.49 686.62,-402.39"/>
<polygon fill="black" stroke="black" points="689.22,-400.04 680.29,-394.34 683.72,-404.37 689.22,-400.04"/>
</g>
<!-- 28 -->
<g id="node28" class="node">
<title>28</title>
<ellipse fill="none" stroke="black" cx="671.24" cy="-234" rx="42.79" ry="18"/>
<text text-anchor="middle" x="671.24" y="-230.3" font-family="Times,serif" font-size="14.00">libmd0</text>
</g>
<!-- 18&#45;&gt;28 -->
<g id="edge72" class="edge">
<title>18&#45;&gt;28</title>
<path fill="none" stroke="black" d="M720.4,-431.73C717.23,-413.65 711.57,-384.52 704.24,-360 699.32,-343.55 695.16,-340.45 690.24,-324 684.14,-303.6 679.19,-280.01 675.88,-262.24"/>
<polygon fill="black" stroke="black" points="679.3,-261.49 674.08,-252.27 672.41,-262.73 679.3,-261.49"/>
</g>
<!-- 18&#45;&gt;29 -->
<g id="edge74" class="edge">
<title>18&#45;&gt;29</title>
<path fill="none" stroke="black" d="M757.17,-447.88C877.28,-443.65 1277.64,-427.32 1325.24,-396 1346.82,-381.8 1359.45,-354.52 1366.29,-333.89"/>
<polygon fill="black" stroke="black" points="1369.71,-334.68 1369.28,-324.1 1363.01,-332.64 1369.71,-334.68"/>
</g>
<!-- 18&#45;&gt;30 -->
<g id="edge71" class="edge">
<title>18&#45;&gt;30</title>
<path fill="none" stroke="black" d="M756.64,-447.23C831.18,-442.74 1008.38,-428.82 1057.24,-396 1079.29,-381.19 1093.82,-354.06 1102.2,-333.63"/>
<polygon fill="black" stroke="black" points="1105.49,-334.81 1105.82,-324.22 1098.96,-332.29 1105.49,-334.81"/>
</g>
<!-- 19&#45;&gt;20 -->
<g id="edge77" class="edge">
<title>19&#45;&gt;20</title>
<path fill="none" stroke="black" d="M550.37,-360.37C522.06,-328.71 469.22,-259.08 507.24,-216 532.16,-187.77 784.78,-170.93 887.33,-165.21"/>
<polygon fill="black" stroke="black" points="887.55,-168.7 897.35,-164.66 887.17,-161.71 887.55,-168.7"/>
</g>
<!-- 20&#45;&gt;21 -->
<g id="edge78" class="edge">
<title>20&#45;&gt;21</title>
<path fill="none" stroke="black" d="M962.94,-158.38C1093,-147.98 1574.69,-109.44 1745.06,-95.81"/>
<polygon fill="black" stroke="black" points="1745.42,-99.3 1755.11,-95.01 1744.86,-92.32 1745.42,-99.3"/>
</g>
<!-- 21&#45;&gt;22 -->
<g id="edge79" class="edge">
<title>21&#45;&gt;22</title>
<path fill="none" stroke="black" d="M1795.56,-72.05C1790.96,-64.01 1785.36,-54.2 1780.23,-45.23"/>
<polygon fill="black" stroke="black" points="1783.11,-43.22 1775.11,-36.28 1777.03,-46.69 1783.11,-43.22"/>
</g>
<!-- 23&#45;&gt;20 -->
<g id="edge1" class="edge">
<title>23&#45;&gt;20</title>
<path fill="none" stroke="black" d="M450.42,-359.79C447.95,-326.48 447.86,-253.2 489.24,-216 518.52,-189.68 781.77,-171.62 887.03,-165.4"/>
<polygon fill="black" stroke="black" points="887.52,-168.87 897.3,-164.8 887.11,-161.89 887.52,-168.87"/>
</g>
<!-- 24&#45;&gt;20 -->
<g id="edge2" class="edge">
<title>24&#45;&gt;20</title>
<path fill="none" stroke="black" d="M801.47,-292.24C824.35,-283.54 852.49,-270.26 873.24,-252 893.16,-234.48 908.76,-208.36 918.56,-188.95"/>
<polygon fill="black" stroke="black" points="921.81,-190.28 923.03,-179.75 915.51,-187.22 921.81,-190.28"/>
</g>
<!-- 25 -->
<g id="node25" class="node">
<title>25</title>
<ellipse fill="none" stroke="black" cx="798.24" cy="-234" rx="66.09" ry="18"/>
<text text-anchor="middle" x="798.24" y="-230.3" font-family="Times,serif" font-size="14.00">libpcre2&#45;8&#45;0</text>
</g>
<!-- 24&#45;&gt;25 -->
<g id="edge3" class="edge">
<title>24&#45;&gt;25</title>
<path fill="none" stroke="black" d="M770.2,-288.05C774.45,-280.01 779.63,-270.2 784.38,-261.23"/>
<polygon fill="black" stroke="black" points="787.53,-262.75 789.11,-252.28 781.34,-259.48 787.53,-262.75"/>
</g>
<!-- 25&#45;&gt;20 -->
<g id="edge4" class="edge">
<title>25&#45;&gt;20</title>
<path fill="none" stroke="black" d="M827.21,-217.64C848.1,-206.56 876.31,-191.6 897.93,-180.14"/>
<polygon fill="black" stroke="black" points="899.85,-183.08 907.05,-175.3 896.57,-176.89 899.85,-183.08"/>
</g>
<!-- 26&#45;&gt;20 -->
<g id="edge6" class="edge">
<title>26&#45;&gt;20</title>
<path fill="none" stroke="black" d="M646.64,-366.92C611.83,-349.31 544.59,-309.28 518.24,-252 511.55,-237.46 507.67,-228.01 518.24,-216 542.36,-188.58 786.3,-171.37 887.06,-165.38"/>
<polygon fill="black" stroke="black" points="887.42,-168.86 897.2,-164.78 887.02,-161.87 887.42,-168.86"/>
</g>
<!-- 26&#45;&gt;24 -->
<g id="edge7" class="edge">
<title>26&#45;&gt;24</title>
<path fill="none" stroke="black" d="M685.73,-363.83C698.7,-354.08 716.67,-340.55 731.83,-329.14"/>
<polygon fill="black" stroke="black" points="734.02,-331.87 739.91,-323.06 729.81,-326.27 734.02,-331.87"/>
</g>
<!-- 27 -->
<g id="node27" class="node">
<title>27</title>
<ellipse fill="none" stroke="black" cx="569.24" cy="-234" rx="41.69" ry="18"/>
<text text-anchor="middle" x="569.24" y="-230.3" font-family="Times,serif" font-size="14.00">libacl1</text>
</g>
<!-- 26&#45;&gt;27 -->
<g id="edge5" class="edge">
<title>26&#45;&gt;27</title>
<path fill="none" stroke="black" d="M657.27,-361.26C640.2,-336.79 607.16,-289.38 586.76,-260.14"/>
<polygon fill="black" stroke="black" points="589.46,-257.89 580.87,-251.69 583.72,-261.89 589.46,-257.89"/>
</g>
<!-- 27&#45;&gt;20 -->
<g id="edge8" class="edge">
<title>27&#45;&gt;20</title>
<path fill="none" stroke="black" d="M599.95,-221.7C606.27,-219.62 612.93,-217.6 619.24,-216 713.9,-192 827.56,-175.72 887.84,-168.05"/>
<polygon fill="black" stroke="black" points="888.62,-171.48 898.1,-166.76 887.75,-164.54 888.62,-171.48"/>
</g>
<!-- 28&#45;&gt;20 -->
<g id="edge9" class="edge">
<title>28&#45;&gt;20</title>
<path fill="none" stroke="black" d="M703.59,-222.06C710.08,-219.97 716.86,-217.86 723.24,-216 780.99,-199.19 848.62,-182.41 890.45,-172.37"/>
<polygon fill="black" stroke="black" points="891.34,-175.76 900.25,-170.03 889.71,-168.95 891.34,-175.76"/>
</g>
<!-- 29&#45;&gt;20 -->
<g id="edge10" class="edge">
<title>29&#45;&gt;20</title>
<path fill="none" stroke="black" d="M1366.51,-288.01C1357.35,-267.29 1338.85,-232.94 1311.24,-216 1255.31,-181.69 1060.74,-168.82 973.34,-164.7"/>
<polygon fill="black" stroke="black" points="973.38,-161.2 963.23,-164.24 973.06,-168.19 973.38,-161.2"/>
</g>
<!-- 30&#45;&gt;20 -->
<g id="edge11" class="edge">
<title>30&#45;&gt;20</title>
<path fill="none" stroke="black" d="M1124.57,-288.64C1138.46,-269.47 1156.05,-237.61 1139.24,-216 1118.99,-189.98 1027.66,-174.67 972.65,-167.66"/>
<polygon fill="black" stroke="black" points="972.85,-164.16 962.5,-166.4 971.99,-171.1 972.85,-164.16"/>
</g>
<!-- 31&#45;&gt;18 -->
<g id="edge14" class="edge">
<title>31&#45;&gt;18</title>
<path fill="none" stroke="black" d="M614.63,-506.5C636.67,-495.23 667.27,-479.6 690.37,-467.79"/>
<polygon fill="black" stroke="black" points="692.14,-470.82 699.46,-463.15 688.96,-464.59 692.14,-470.82"/>
</g>
<!-- 31&#45;&gt;20 -->
<g id="edge12" class="edge">
<title>31&#45;&gt;20</title>
<path fill="none" stroke="black" d="M550.61,-508.45C506.97,-490.93 435.04,-454.51 404.24,-396 373.19,-337.01 407.45,-256.64 460.24,-216 526.29,-165.15 783.19,-161.62 886.68,-162.34"/>
<polygon fill="black" stroke="black" points="886.76,-165.84 896.79,-162.42 886.82,-158.84 886.76,-165.84"/>
</g>
<!-- 31&#45;&gt;32 -->
<g id="edge13" class="edge">
<title>31&#45;&gt;32</title>
<path fill="none" stroke="black" d="M544.47,-510.44C495.2,-497.99 413.31,-477.3 360.31,-463.91"/>
<polygon fill="black" stroke="black" points="361,-460.47 350.44,-461.41 359.28,-467.26 361,-460.47"/>
</g>
<!-- 32&#45;&gt;20 -->
<g id="edge15" class="edge">
<title>32&#45;&gt;20</title>
<path fill="none" stroke="black" d="M304.65,-431.91C294.2,-388.73 273.88,-274.53 333.24,-216 372.51,-177.28 756.19,-166.34 886.89,-163.73"/>
<polygon fill="black" stroke="black" points="887.01,-167.23 896.94,-163.53 886.88,-160.23 887.01,-167.23"/>
</g>
</g>
</svg>
