<?xml version="1.0" encoding="us-ascii" standalone="no"?><svg xmlns="http://www.w3.org/2000/svg" xmlns:xlink="http://www.w3.org/1999/xlink" contentStyleType="text/css" height="719px" preserveAspectRatio="none" style="width:1025px;height:719px;background:#FFFFFF;" version="1.1" viewBox="0 0 1025 719" width="1025px" zoomAndPan="magnify"><defs/><g><!--cluster de--><g id="cluster_de"><path d="M8.5,6 L29.5,6 A3.75,3.75 0 0 1 32,8.5 L39,28.2969 L1015.5,28.2969 A2.5,2.5 0 0 1 1018,30.7969 L1018,709.5 A2.5,2.5 0 0 1 1015.5,712 L8.5,712 A2.5,2.5 0 0 1 6,709.5 L6,8.5 A2.5,2.5 0 0 1 8.5,6 " fill="none" style="stroke:#000000;stroke-width:1.5;"/><line style="stroke:#000000;stroke-width:1.5;" x1="6" x2="39" y1="28.2969" y2="28.2969"/><text fill="#000000" font-family="sans-serif" font-size="14" font-weight="bold" lengthAdjust="spacing" textLength="20" x="10" y="20.9951">de</text></g><!--cluster elbosso--><g id="cluster_elbosso"><path d="M32.5,49 L95.5,49 A3.75,3.75 0 0 1 98,51.5 L105,71.2969 L991.5,71.2969 A2.5,2.5 0 0 1 994,73.7969 L994,685.5 A2.5,2.5 0 0 1 991.5,688 L32.5,688 A2.5,2.5 0 0 1 30,685.5 L30,51.5 A2.5,2.5 0 0 1 32.5,49 " fill="none" style="stroke:#000000;stroke-width:1.5;"/><line style="stroke:#000000;stroke-width:1.5;" x1="30" x2="105" y1="71.2969" y2="71.2969"/><text fill="#000000" font-family="sans-serif" font-size="14" font-weight="bold" lengthAdjust="spacing" textLength="62" x="34" y="63.9951">elbosso</text></g><!--cluster util--><g id="cluster_util"><path d="M390.5,92 L415.5,92 A3.75,3.75 0 0 1 418,94.5 L425,114.2969 L651.5,114.2969 A2.5,2.5 0 0 1 654,116.7969 L654,255.5 A2.5,2.5 0 0 1 651.5,258 L390.5,258 A2.5,2.5 0 0 1 388,255.5 L388,94.5 A2.5,2.5 0 0 1 390.5,92 " fill="none" style="stroke:#000000;stroke-width:1.5;"/><line style="stroke:#000000;stroke-width:1.5;" x1="388" x2="425" y1="114.2969" y2="114.2969"/><text fill="#000000" font-family="sans-serif" font-size="14" font-weight="bold" lengthAdjust="spacing" textLength="24" x="392" y="106.9951">util</text></g><!--cluster beans--><g id="cluster_beans"><path d="M414.5,135 L463.5,135 A3.75,3.75 0 0 1 466,137.5 L473,157.2969 L627.5,157.2969 A2.5,2.5 0 0 1 630,159.7969 L630,231.5 A2.5,2.5 0 0 1 627.5,234 L414.5,234 A2.5,2.5 0 0 1 412,231.5 L412,137.5 A2.5,2.5 0 0 1 414.5,135 " fill="none" style="stroke:#000000;stroke-width:1.5;"/><line style="stroke:#000000;stroke-width:1.5;" x1="412" x2="473" y1="157.2969" y2="157.2969"/><text fill="#000000" font-family="sans-serif" font-size="14" font-weight="bold" lengthAdjust="spacing" textLength="48" x="416" y="149.9951">beans</text></g><!--cluster scratch--><g id="cluster_scratch"><path d="M56.5,282 L116.5,282 A3.75,3.75 0 0 1 119,284.5 L126,304.2969 L967.5,304.2969 A2.5,2.5 0 0 1 970,306.7969 L970,661.5 A2.5,2.5 0 0 1 967.5,664 L56.5,664 A2.5,2.5 0 0 1 54,661.5 L54,284.5 A2.5,2.5 0 0 1 56.5,282 " fill="none" style="stroke:#000000;stroke-width:1.5;"/><line style="stroke:#000000;stroke-width:1.5;" x1="54" x2="126" y1="304.2969" y2="304.2969"/><text fill="#000000" font-family="sans-serif" font-size="14" font-weight="bold" lengthAdjust="spacing" textLength="59" x="58" y="296.9951">scratch</text></g><!--cluster game--><g id="cluster_game"><path d="M80.5,325 L124.5,325 A3.75,3.75 0 0 1 127,327.5 L134,347.2969 L943.5,347.2969 A2.5,2.5 0 0 1 946,349.7969 L946,637.5 A2.5,2.5 0 0 1 943.5,640 L80.5,640 A2.5,2.5 0 0 1 78,637.5 L78,327.5 A2.5,2.5 0 0 1 80.5,325 " fill="none" style="stroke:#000000;stroke-width:1.5;"/><line style="stroke:#000000;stroke-width:1.5;" x1="78" x2="134" y1="347.2969" y2="347.2969"/><text fill="#000000" font-family="sans-serif" font-size="14" font-weight="bold" lengthAdjust="spacing" textLength="43" x="82" y="339.9951">game</text></g><!--class EventHandlingSupport--><g id="elem_EventHandlingSupport"><rect codeLine="3" fill="#F1F1F1" height="48" id="EventHandlingSupport" rx="2.5" ry="2.5" style="stroke:#181818;stroke-width:0.5;" width="186" x="428" y="170"/><ellipse cx="443" cy="186" fill="#ADD1B2" rx="11" ry="11" style="stroke:#181818;stroke-width:1.0;"/><path d="M445.9688,191.6406 Q445.3906,191.9375 444.75,192.0781 Q444.1094,192.2344 443.4063,192.2344 Q440.9063,192.2344 439.5781,190.5938 Q438.2656,188.9375 438.2656,185.8125 Q438.2656,182.6875 439.5781,181.0313 Q440.9063,179.375 443.4063,179.375 Q444.1094,179.375 444.75,179.5313 Q445.4063,179.6875 445.9688,179.9844 L445.9688,182.7031 Q445.3438,182.125 444.75,181.8594 Q444.1563,181.5781 443.5313,181.5781 Q442.1875,181.5781 441.5,182.6563 Q440.8125,183.7188 440.8125,185.8125 Q440.8125,187.9063 441.5,188.9844 Q442.1875,190.0469 443.5313,190.0469 Q444.1563,190.0469 444.75,189.7813 Q445.3438,189.5 445.9688,188.9219 L445.9688,191.6406 Z " fill="#000000"/><text fill="#000000" font-family="sans-serif" font-size="14" lengthAdjust="spacing" textLength="154" x="457" y="190.8467">EventHandlingSupport</text><line style="stroke:#181818;stroke-width:0.5;" x1="429" x2="613" y1="202" y2="202"/><line style="stroke:#181818;stroke-width:0.5;" x1="429" x2="613" y1="210" y2="210"/></g><!--class Entity--><g id="elem_Entity"><rect codeLine="7" fill="#F1F1F1" height="48" id="Entity" rx="2.5" ry="2.5" style="stroke:#181818;stroke-width:0.5;" width="70" x="486" y="360"/><ellipse cx="501" cy="376" fill="#ADD1B2" rx="11" ry="11" style="stroke:#181818;stroke-width:1.0;"/><path d="M503.9688,381.6406 Q503.3906,381.9375 502.75,382.0781 Q502.1094,382.2344 501.4063,382.2344 Q498.9063,382.2344 497.5781,380.5938 Q496.2656,378.9375 496.2656,375.8125 Q496.2656,372.6875 497.5781,371.0313 Q498.9063,369.375 501.4063,369.375 Q502.1094,369.375 502.75,369.5313 Q503.4063,369.6875 503.9688,369.9844 L503.9688,372.7031 Q503.3438,372.125 502.75,371.8594 Q502.1563,371.5781 501.5313,371.5781 Q500.1875,371.5781 499.5,372.6563 Q498.8125,373.7188 498.8125,375.8125 Q498.8125,377.9063 499.5,378.9844 Q500.1875,380.0469 501.5313,380.0469 Q502.1563,380.0469 502.75,379.7813 Q503.3438,379.5 503.9688,378.9219 L503.9688,381.6406 Z " fill="#000000"/><text fill="#000000" font-family="sans-serif" font-size="14" lengthAdjust="spacing" textLength="38" x="515" y="380.8467">Entity</text><line style="stroke:#181818;stroke-width:0.5;" x1="487" x2="555" y1="392" y2="392"/><line style="stroke:#181818;stroke-width:0.5;" x1="487" x2="555" y1="400" y2="400"/></g><!--class BuildingBlock--><g id="elem_BuildingBlock"><rect codeLine="8" fill="#F1F1F1" height="48" id="BuildingBlock" rx="2.5" ry="2.5" style="stroke:#181818;stroke-width:0.5;" width="125" x="458.5" y="468"/><ellipse cx="473.5" cy="484" fill="#ADD1B2" rx="11" ry="11" style="stroke:#181818;stroke-width:1.0;"/><path d="M476.4688,489.6406 Q475.8906,489.9375 475.25,490.0781 Q474.6094,490.2344 473.9063,490.2344 Q471.4063,490.2344 470.0781,488.5938 Q468.7656,486.9375 468.7656,483.8125 Q468.7656,480.6875 470.0781,479.0313 Q471.4063,477.375 473.9063,477.375 Q474.6094,477.375 475.25,477.5313 Q475.9063,477.6875 476.4688,477.9844 L476.4688,480.7031 Q475.8438,480.125 475.25,479.8594 Q474.6563,479.5781 474.0313,479.5781 Q472.6875,479.5781 472,480.6563 Q471.3125,481.7188 471.3125,483.8125 Q471.3125,485.9063 472,486.9844 Q472.6875,488.0469 474.0313,488.0469 Q474.6563,488.0469 475.25,487.7813 Q475.8438,487.5 476.4688,486.9219 L476.4688,489.6406 Z " fill="#000000"/><text fill="#000000" font-family="sans-serif" font-size="14" lengthAdjust="spacing" textLength="93" x="487.5" y="488.8467">BuildingBlock</text><line style="stroke:#181818;stroke-width:0.5;" x1="459.5" x2="582.5" y1="500" y2="500"/><line style="stroke:#181818;stroke-width:0.5;" x1="459.5" x2="582.5" y1="508" y2="508"/></g><!--class Generator--><g id="elem_Generator"><rect codeLine="9" fill="#F1F1F1" height="48" id="Generator" rx="2.5" ry="2.5" style="stroke:#181818;stroke-width:0.5;" width="102" x="94" y="576"/><ellipse cx="109" cy="592" fill="#ADD1B2" rx="11" ry="11" style="stroke:#181818;stroke-width:1.0;"/><path d="M111.9688,597.6406 Q111.3906,597.9375 110.75,598.0781 Q110.1094,598.2344 109.4063,598.2344 Q106.9063,598.2344 105.5781,596.5938 Q104.2656,594.9375 104.2656,591.8125 Q104.2656,588.6875 105.5781,587.0313 Q106.9063,585.375 109.4063,585.375 Q110.1094,585.375 110.75,585.5313 Q111.4063,585.6875 111.9688,585.9844 L111.9688,588.7031 Q111.3438,588.125 110.75,587.8594 Q110.1563,587.5781 109.5313,587.5781 Q108.1875,587.5781 107.5,588.6563 Q106.8125,589.7188 106.8125,591.8125 Q106.8125,593.9063 107.5,594.9844 Q108.1875,596.0469 109.5313,596.0469 Q110.1563,596.0469 110.75,595.7813 Q111.3438,595.5 111.9688,594.9219 L111.9688,597.6406 Z " fill="#000000"/><text fill="#000000" font-family="sans-serif" font-size="14" lengthAdjust="spacing" textLength="70" x="123" y="596.8467">Generator</text><line style="stroke:#181818;stroke-width:0.5;" x1="95" x2="195" y1="608" y2="608"/><line style="stroke:#181818;stroke-width:0.5;" x1="95" x2="195" y1="616" y2="616"/></g><!--class Hull--><g id="elem_Hull"><rect codeLine="10" fill="#F1F1F1" height="48" id="Hull" rx="2.5" ry="2.5" style="stroke:#181818;stroke-width:0.5;" width="57" x="231.5" y="576"/><ellipse cx="246.5" cy="592" fill="#ADD1B2" rx="11" ry="11" style="stroke:#181818;stroke-width:1.0;"/><path d="M249.4688,597.6406 Q248.8906,597.9375 248.25,598.0781 Q247.6094,598.2344 246.9063,598.2344 Q244.4063,598.2344 243.0781,596.5938 Q241.7656,594.9375 241.7656,591.8125 Q241.7656,588.6875 243.0781,587.0313 Q244.4063,585.375 246.9063,585.375 Q247.6094,585.375 248.25,585.5313 Q248.9063,585.6875 249.4688,585.9844 L249.4688,588.7031 Q248.8438,588.125 248.25,587.8594 Q247.6563,587.5781 247.0313,587.5781 Q245.6875,587.5781 245,588.6563 Q244.3125,589.7188 244.3125,591.8125 Q244.3125,593.9063 245,594.9844 Q245.6875,596.0469 247.0313,596.0469 Q247.6563,596.0469 248.25,595.7813 Q248.8438,595.5 249.4688,594.9219 L249.4688,597.6406 Z " fill="#000000"/><text fill="#000000" font-family="sans-serif" font-size="14" lengthAdjust="spacing" textLength="25" x="260.5" y="596.8467">Hull</text><line style="stroke:#181818;stroke-width:0.5;" x1="232.5" x2="287.5" y1="608" y2="608"/><line style="stroke:#181818;stroke-width:0.5;" x1="232.5" x2="287.5" y1="616" y2="616"/></g><!--class LifeSupport--><g id="elem_LifeSupport"><rect codeLine="11" fill="#F1F1F1" height="48" id="LifeSupport" rx="2.5" ry="2.5" style="stroke:#181818;stroke-width:0.5;" width="110" x="324" y="576"/><ellipse cx="339" cy="592" fill="#ADD1B2" rx="11" ry="11" style="stroke:#181818;stroke-width:1.0;"/><path d="M341.9688,597.6406 Q341.3906,597.9375 340.75,598.0781 Q340.1094,598.2344 339.4063,598.2344 Q336.9063,598.2344 335.5781,596.5938 Q334.2656,594.9375 334.2656,591.8125 Q334.2656,588.6875 335.5781,587.0313 Q336.9063,585.375 339.4063,585.375 Q340.1094,585.375 340.75,585.5313 Q341.4063,585.6875 341.9688,585.9844 L341.9688,588.7031 Q341.3438,588.125 340.75,587.8594 Q340.1563,587.5781 339.5313,587.5781 Q338.1875,587.5781 337.5,588.6563 Q336.8125,589.7188 336.8125,591.8125 Q336.8125,593.9063 337.5,594.9844 Q338.1875,596.0469 339.5313,596.0469 Q340.1563,596.0469 340.75,595.7813 Q341.3438,595.5 341.9688,594.9219 L341.9688,597.6406 Z " fill="#000000"/><text fill="#000000" font-family="sans-serif" font-size="14" lengthAdjust="spacing" textLength="78" x="353" y="596.8467">LifeSupport</text><line style="stroke:#181818;stroke-width:0.5;" x1="325" x2="433" y1="608" y2="608"/><line style="stroke:#181818;stroke-width:0.5;" x1="325" x2="433" y1="616" y2="616"/></g><!--class Propulsion--><g id="elem_Propulsion"><rect codeLine="12" fill="#F1F1F1" height="48" id="Propulsion" rx="2.5" ry="2.5" style="stroke:#181818;stroke-width:0.5;" width="105" x="468.5" y="576"/><ellipse cx="483.5" cy="592" fill="#ADD1B2" rx="11" ry="11" style="stroke:#181818;stroke-width:1.0;"/><path d="M486.4688,597.6406 Q485.8906,597.9375 485.25,598.0781 Q484.6094,598.2344 483.9063,598.2344 Q481.4063,598.2344 480.0781,596.5938 Q478.7656,594.9375 478.7656,591.8125 Q478.7656,588.6875 480.0781,587.0313 Q481.4063,585.375 483.9063,585.375 Q484.6094,585.375 485.25,585.5313 Q485.9063,585.6875 486.4688,585.9844 L486.4688,588.7031 Q485.8438,588.125 485.25,587.8594 Q484.6563,587.5781 484.0313,587.5781 Q482.6875,587.5781 482,588.6563 Q481.3125,589.7188 481.3125,591.8125 Q481.3125,593.9063 482,594.9844 Q482.6875,596.0469 484.0313,596.0469 Q484.6563,596.0469 485.25,595.7813 Q485.8438,595.5 486.4688,594.9219 L486.4688,597.6406 Z " fill="#000000"/><text fill="#000000" font-family="sans-serif" font-size="14" lengthAdjust="spacing" textLength="73" x="497.5" y="596.8467">Propulsion</text><line style="stroke:#181818;stroke-width:0.5;" x1="469.5" x2="572.5" y1="608" y2="608"/><line style="stroke:#181818;stroke-width:0.5;" x1="469.5" x2="572.5" y1="616" y2="616"/></g><!--class Quarters--><g id="elem_Quarters"><rect codeLine="13" fill="#F1F1F1" height="48" id="Quarters" rx="2.5" ry="2.5" style="stroke:#181818;stroke-width:0.5;" width="92" x="608" y="576"/><ellipse cx="623" cy="592" fill="#ADD1B2" rx="11" ry="11" style="stroke:#181818;stroke-width:1.0;"/><path d="M625.9688,597.6406 Q625.3906,597.9375 624.75,598.0781 Q624.1094,598.2344 623.4063,598.2344 Q620.9063,598.2344 619.5781,596.5938 Q618.2656,594.9375 618.2656,591.8125 Q618.2656,588.6875 619.5781,587.0313 Q620.9063,585.375 623.4063,585.375 Q624.1094,585.375 624.75,585.5313 Q625.4063,585.6875 625.9688,585.9844 L625.9688,588.7031 Q625.3438,588.125 624.75,587.8594 Q624.1563,587.5781 623.5313,587.5781 Q622.1875,587.5781 621.5,588.6563 Q620.8125,589.7188 620.8125,591.8125 Q620.8125,593.9063 621.5,594.9844 Q622.1875,596.0469 623.5313,596.0469 Q624.1563,596.0469 624.75,595.7813 Q625.3438,595.5 625.9688,594.9219 L625.9688,597.6406 Z " fill="#000000"/><text fill="#000000" font-family="sans-serif" font-size="14" lengthAdjust="spacing" textLength="60" x="637" y="596.8467">Quarters</text><line style="stroke:#181818;stroke-width:0.5;" x1="609" x2="699" y1="608" y2="608"/><line style="stroke:#181818;stroke-width:0.5;" x1="609" x2="699" y1="616" y2="616"/></g><!--class Shield--><g id="elem_Shield"><rect codeLine="14" fill="#F1F1F1" height="48" id="Shield" rx="2.5" ry="2.5" style="stroke:#181818;stroke-width:0.5;" width="74" x="735" y="576"/><ellipse cx="750" cy="592" fill="#ADD1B2" rx="11" ry="11" style="stroke:#181818;stroke-width:1.0;"/><path d="M752.9688,597.6406 Q752.3906,597.9375 751.75,598.0781 Q751.1094,598.2344 750.4063,598.2344 Q747.9063,598.2344 746.5781,596.5938 Q745.2656,594.9375 745.2656,591.8125 Q745.2656,588.6875 746.5781,587.0313 Q747.9063,585.375 750.4063,585.375 Q751.1094,585.375 751.75,585.5313 Q752.4063,585.6875 752.9688,585.9844 L752.9688,588.7031 Q752.3438,588.125 751.75,587.8594 Q751.1563,587.5781 750.5313,587.5781 Q749.1875,587.5781 748.5,588.6563 Q747.8125,589.7188 747.8125,591.8125 Q747.8125,593.9063 748.5,594.9844 Q749.1875,596.0469 750.5313,596.0469 Q751.1563,596.0469 751.75,595.7813 Q752.3438,595.5 752.9688,594.9219 L752.9688,597.6406 Z " fill="#000000"/><text fill="#000000" font-family="sans-serif" font-size="14" lengthAdjust="spacing" textLength="42" x="764" y="596.8467">Shield</text><line style="stroke:#181818;stroke-width:0.5;" x1="736" x2="808" y1="608" y2="608"/><line style="stroke:#181818;stroke-width:0.5;" x1="736" x2="808" y1="616" y2="616"/></g><!--class Storage--><g id="elem_Storage"><rect codeLine="15" fill="#F1F1F1" height="48" id="Storage" rx="2.5" ry="2.5" style="stroke:#181818;stroke-width:0.5;" width="86" x="844" y="576"/><ellipse cx="859" cy="592" fill="#ADD1B2" rx="11" ry="11" style="stroke:#181818;stroke-width:1.0;"/><path d="M861.9688,597.6406 Q861.3906,597.9375 860.75,598.0781 Q860.1094,598.2344 859.4063,598.2344 Q856.9063,598.2344 855.5781,596.5938 Q854.2656,594.9375 854.2656,591.8125 Q854.2656,588.6875 855.5781,587.0313 Q856.9063,585.375 859.4063,585.375 Q860.1094,585.375 860.75,585.5313 Q861.4063,585.6875 861.9688,585.9844 L861.9688,588.7031 Q861.3438,588.125 860.75,587.8594 Q860.1563,587.5781 859.5313,587.5781 Q858.1875,587.5781 857.5,588.6563 Q856.8125,589.7188 856.8125,591.8125 Q856.8125,593.9063 857.5,594.9844 Q858.1875,596.0469 859.5313,596.0469 Q860.1563,596.0469 860.75,595.7813 Q861.3438,595.5 861.9688,594.9219 L861.9688,597.6406 Z " fill="#000000"/><text fill="#000000" font-family="sans-serif" font-size="14" lengthAdjust="spacing" textLength="54" x="873" y="596.8467">Storage</text><line style="stroke:#181818;stroke-width:0.5;" x1="845" x2="929" y1="608" y2="608"/><line style="stroke:#181818;stroke-width:0.5;" x1="845" x2="929" y1="616" y2="616"/></g><!--reverse link EventHandlingSupport to Entity--><g id="link_EventHandlingSupport_Entity"><path codeLine="16" d="M521,236.43 C521,272.55 521,323.45 521,359.57 " fill="none" id="EventHandlingSupport-backto-Entity" style="stroke:#181818;stroke-width:1.0;"/><polygon fill="none" points="521,218.43,515,236.43,527,236.43,521,218.43" style="stroke:#181818;stroke-width:1.0;"/></g><!--reverse link Entity to BuildingBlock--><g id="link_Entity_BuildingBlock"><path codeLine="17" d="M521,426.26 C521,443.94 521,450.13 521,467.79 " fill="none" id="Entity-backto-BuildingBlock" style="stroke:#181818;stroke-width:1.0;"/><polygon fill="none" points="521,408.26,515,426.26,527,426.26,521,408.26" style="stroke:#181818;stroke-width:1.0;"/></g><!--reverse link BuildingBlock to Generator--><g id="link_BuildingBlock_Generator"><path codeLine="18" d="M440.6449,513.3543 C378.3749,529.3343 297.92,550.69 214,576 C208.2,577.75 202.14,579.65 196.14,581.59 " fill="none" id="BuildingBlock-backto-Generator" style="stroke:#181818;stroke-width:1.0;"/><polygon fill="none" points="458.08,508.88,439.1535,507.5426,442.1364,519.1659,458.08,508.88" style="stroke:#181818;stroke-width:1.0;"/></g><!--reverse link BuildingBlock to Hull--><g id="link_BuildingBlock_Hull"><path codeLine="19" d="M441.3656,521.6313 C398.1456,537.5213 356.51,553.69 306,576 C300.28,578.53 294.25,581.39 288.51,584.22 " fill="none" id="BuildingBlock-backto-Hull" style="stroke:#181818;stroke-width:1.0;"/><polygon fill="none" points="458.26,515.42,439.2952,515.9998,443.4361,527.2627,458.26,515.42" style="stroke:#181818;stroke-width:1.0;"/></g><!--reverse link BuildingBlock to LifeSupport--><g id="link_BuildingBlock_LifeSupport"><path codeLine="20" d="M475.4166,527.0288 C451.7366,544.7088 433.75,558.13 410.09,575.79 " fill="none" id="BuildingBlock-backto-LifeSupport" style="stroke:#181818;stroke-width:1.0;"/><polygon fill="none" points="489.84,516.26,471.827,522.221,479.0062,531.8366,489.84,516.26" style="stroke:#181818;stroke-width:1.0;"/></g><!--reverse link BuildingBlock to Propulsion--><g id="link_BuildingBlock_Propulsion"><path codeLine="21" d="M521,534.26 C521,551.94 521,558.13 521,575.79 " fill="none" id="BuildingBlock-backto-Propulsion" style="stroke:#181818;stroke-width:1.0;"/><polygon fill="none" points="521,516.26,515,534.26,527,534.26,521,516.26" style="stroke:#181818;stroke-width:1.0;"/></g><!--reverse link BuildingBlock to Quarters--><g id="link_BuildingBlock_Quarters"><path codeLine="22" d="M564.263,527.4828 C586.433,545.1628 602.72,558.13 624.88,575.79 " fill="none" id="BuildingBlock-backto-Quarters" style="stroke:#181818;stroke-width:1.0;"/><polygon fill="none" points="550.19,516.26,560.522,532.1738,568.0039,522.7918,550.19,516.26" style="stroke:#181818;stroke-width:1.0;"/></g><!--reverse link BuildingBlock to Shield--><g id="link_BuildingBlock_Shield"><path codeLine="23" d="M593.2338,523.3547 C632.7038,539.9447 670.33,555.81 718,576 C723.35,578.27 728.99,580.66 734.53,583.02 " fill="none" id="BuildingBlock-backto-Shield" style="stroke:#181818;stroke-width:1.0;"/><polygon fill="none" points="576.64,516.38,590.9089,528.8859,595.5587,517.8234,576.64,516.38" style="stroke:#181818;stroke-width:1.0;"/></g><!--reverse link BuildingBlock to Storage--><g id="link_BuildingBlock_Storage"><path codeLine="24" d="M601.4346,512.4174 C663.6846,527.7974 743.93,548.89 827,576 C832.41,577.77 838.04,579.74 843.6,581.77 " fill="none" id="BuildingBlock-backto-Storage" style="stroke:#181818;stroke-width:1.0;"/><polygon fill="none" points="583.96,508.1,599.9954,518.2423,602.8737,506.5926,583.96,508.1" style="stroke:#181818;stroke-width:1.0;"/></g><!--SRC=[RL1B3i8W5Dnp2YuW9t3LnDY52qrFGE7PaZw1y34nshjBqfQsoewPUSoRUPQBWNT09J30rdXlM0mAMGjSU_8cb0hatjFJ4tIekPQeTDT4QuqBPAI4s7y3BnmFecSTVm3TMEYWmYl3AYgKoQn28uRCda53-crSPkg8cC55tM7Pld1NPsn4hupEr2ro5y3vJ3Iz0fGhJ0jIw8HBlUZnSpYiSQV7HFw6tk5fPDkW8Czr2ig-Ms5WLxIWRreNr7o2aZRVWunV]--></g></svg>