<?xml version="1.0" encoding="UTF-8" standalone="no"?>
<svg
   xmlns:dc="http://purl.org/dc/elements/1.1/"
   xmlns:cc="http://creativecommons.org/ns#"
   xmlns:rdf="http://www.w3.org/1999/02/22-rdf-syntax-ns#"
   xmlns:svg="http://www.w3.org/2000/svg"
   xmlns="http://www.w3.org/2000/svg"
   xmlns:sodipodi="http://sodipodi.sourceforge.net/DTD/sodipodi-0.dtd"
   xmlns:inkscape="http://www.inkscape.org/namespaces/inkscape"
   style="font-style:normal;font-weight:normal;font-size:12px;font-family:Dialog;color-interpolation:auto;fill:#000000;fill-opacity:1;stroke:#000000;stroke-width:1;stroke-linecap:square;stroke-linejoin:miter;stroke-miterlimit:10;stroke-dasharray:none;stroke-dashoffset:0;stroke-opacity:1;color-rendering:auto;image-rendering:auto;shape-rendering:auto;text-rendering:auto"
   width="1042"
   contentScriptType="text/ecmascript"
   preserveAspectRatio="xMidYMid meet"
   viewBox="-50 -50 1042 750"
   zoomAndPan="magnify"
   version="1.0"
   contentStyleType="text/css"
   height="750"
   id="svg107"
   sodipodi:docname="te.svg"
   inkscape:version="0.92.5 (2060ec1f9f, 2020-04-08)">
  <metadata
     id="metadata111">
    <rdf:RDF>
      <cc:Work
         rdf:about="">
        <dc:format>image/svg+xml</dc:format>
        <dc:type
           rdf:resource="http://purl.org/dc/dcmitype/StillImage" />
        <dc:title></dc:title>
      </cc:Work>
    </rdf:RDF>
  </metadata>
  <sodipodi:namedview
     pagecolor="#ffffff"
     bordercolor="#666666"
     borderopacity="1"
     objecttolerance="10"
     gridtolerance="10"
     guidetolerance="10"
     inkscape:pageopacity="0"
     inkscape:pageshadow="2"
     inkscape:window-width="1848"
     inkscape:window-height="1136"
     id="namedview109"
     showgrid="false"
     inkscape:zoom="0.75275971"
     inkscape:cx="521"
     inkscape:cy="586"
     inkscape:window-x="72"
     inkscape:window-y="27"
     inkscape:window-maximized="1"
     inkscape:current-layer="svg107" />
  <!--Generated by the Batik Graphics2D SVG Generator-->
  <defs
     id="genericDefs" />
  <g
     id="g105"
     transform="translate(0,12)">
    <g
       style="fill:#ffffff;stroke:#ffffff"
       transform="translate(-50,-50)"
       id="g23">
      <path
         d="M 8.4062,0 V -11.8125 H 26.9531 V -133.9844 H 8.4062 v -11.8125 h 60.1563 l 41.5937,93.5469 41.7969,-93.5469 h 60.0625 v 11.8125 h -18.6562 v 122.1719 h 18.6562 V 0 h -75 v -11.8125 h 18.5469 V -123.0469 L 110.3594,-21.3906 H 85.6406 L 40.625,-123.0469 V -11.8125 H 59.1875 V 0 Z"
         style="fill:none;stroke:#ff0000;text-rendering:optimizeLegibility"
         id="path5"
         inkscape:connector-curvature="0"
         transform="translate(700,175)" />
      <rect
         x="50"
         y="40"
         width="500"
         style="fill:none;stroke:#ff0000;text-rendering:optimizeLegibility"
         height="150"
         id="rect7" />
      <circle
         style="fill:none;stroke:#ff0000;text-rendering:optimizeLegibility"
         r="150"
         cx="400"
         cy="160"
         id="circle9" />
      <line
         x1="50"
         x2="400"
         y1="10"
         style="fill:none;stroke:#ff0000;text-rendering:optimizeLegibility"
         y2="200"
         id="line11" />
      <ellipse
         style="fill:none;stroke:#ff0000;text-rendering:optimizeLegibility"
         rx="100"
         cx="150"
         ry="50"
         cy="60"
         id="ellipse13" />
      <path
         d="M 1034.9232,398.697 A 250,150 0 1 0 608.4889,546.4181"
         style="fill:none;stroke:#ff0000;text-rendering:optimizeLegibility"
         id="path15"
         inkscape:connector-curvature="0" />
      <path
         d="m 50,200 50,10 50,-30 50,50 50,-70"
         style="fill:none;stroke:#ff0000;text-rendering:optimizeLegibility"
         id="path17"
         inkscape:connector-curvature="0" />
      <polygon
         style="fill:none;stroke:#ff0000;text-rendering:optimizeLegibility"
         points="275,280 250,200 300,150 350,200 325,280 "
         id="polygon19" />
      <rect
         x="50"
         y="525"
         width="300"
         style="fill:none;stroke:#ff0000;text-rendering:optimizeLegibility"
         rx="10"
         ry="10"
         height="100"
         id="rect21" />
    </g>
    <g
       style="fill:#ff0000;stroke:#ff0000;stroke-width:4;text-rendering:optimizeLegibility"
       transform="translate(-50,-50)"
       id="g27">
      <line
         y2="670"
         style="fill:none"
         x1="50"
         x2="400"
         y1="650"
         id="line25" />
    </g>
    <g
       transform="translate(-50,-50)"
       style="fill:#ff0000;stroke:#ff0000;stroke-width:3;stroke-linecap:butt;stroke-linejoin:bevel;stroke-miterlimit:0;stroke-dasharray:9;text-rendering:optimizeLegibility"
       id="g31">
      <line
         y2="690"
         style="fill:none"
         x1="50"
         x2="400"
         y1="670"
         id="line29" />
    </g>
    <g
       transform="translate(-50,-50)"
       style="fill:#ff0000;fill-opacity:0.50199998;stroke:#ff0000;stroke-opacity:0.50199998;text-rendering:optimizeLegibility"
       id="g43">
      <path
         style="stroke:none"
         d="M 967.9385,415.798 A 200,100 0 1 0 626.7911,514.2788 L 780,450 Z"
         id="path33"
         inkscape:connector-curvature="0" />
      <rect
         x="50"
         width="500"
         height="150"
         y="340"
         style="stroke:none"
         id="rect35" />
      <ellipse
         rx="200"
         ry="100"
         style="stroke:none"
         cx="300"
         cy="350"
         id="ellipse37" />
      <polygon
         style="stroke:none"
         points="575,280 550,200 600,150 650,200 625,280 "
         id="polygon39" />
      <rect
         x="450"
         y="525"
         width="300"
         style="stroke:none"
         rx="10"
         ry="10"
         height="100"
         id="rect41" />
    </g>
    <g
       style="text-rendering:optimizeLegibility"
       transform="translate(650,125)"
       id="g85">
      <path
         style="fill:none"
         d="m 8.4062,0 c 1.0564,-2.3327 1.0564,-5.6079 0,-11.8125 5.438,-0.1933 10.6943,-0.1933 18.5469,0 1.9208,-31.3518 1.9208,-65.6014 0,-122.1719 -5.2324,-0.9504 -9.6336,-0.9504 -18.5469,0 -0.5372,-4.6607 -0.5372,-9.0052 0,-11.8125 16.7461,-3.8105 37.1945,-3.8105 60.1563,0 6.3627,23.0623 18.2532,49.8048 41.5937,93.5469 12.433,-28.6618 24.6385,-55.9795 41.7969,-93.5469 13.8364,0.3622 27.2806,0.3622 60.0625,0 -0.2517,2.5038 -0.2517,5.349 0,11.8125 -5.2335,0.2853 -10.4107,0.2853 -18.6562,0 2.5039,48.8216 2.5039,94.6874 0,122.1719 4.616,-0.9585 10.2074,-0.9585 18.6562,0 -0.4354,2.8049 -0.4354,6.1976 0,11.8125 -17.2166,2.2408 -36.1771,2.2408 -75,0 -1.057,-5.2715 -1.057,-9.571 0,-11.8125 6.721,-0.3338 13.6445,-0.3338 18.5469,0 1.7513,-35.5088 1.7513,-74.3882 0,-111.2344 -12.4861,20.7264 -22.9665,44.2955 -45.2031,101.6563 -3.0438,1.5952 -8.1971,1.5952 -24.7188,0 -20.69,-42.2691 -38.1981,-81.8068 -45.0156,-101.6563 -3.1499,39.8466 -3.1499,83.0488 0,111.2344 4.4491,-1.5407 10.472,-1.5407 18.5625,0 0.2603,4.5475 0.2603,8.8433 0,11.8125 C 46.1956,1.0332 31.9076,1.0332 8.4062,0 Z"
         id="path45"
         inkscape:connector-curvature="0" />
      <path
         style="fill:none"
         d="m 8.4062,0 c 1.1443,-2.5268 1.1443,-5.0917 0,-11.8125 5.2316,-0.186 10.9924,-0.186 18.5469,0 1.7765,-28.9965 1.7765,-69.8513 0,-122.1719 -5.1238,-0.9306 -9.8188,-0.9306 -18.5469,0 -0.5054,-4.3856 -0.5054,-9.1708 0,-11.8125 15.7598,-3.5861 38.5469,-3.5861 60.1563,0 6.9738,25.2775 16.0112,45.6032 41.5937,93.5469 11.6774,-26.9201 25.6812,-58.2623 41.7969,-93.5469 12.6163,0.3303 30.1712,0.3303 60.0625,0 -0.287,2.8545 -0.287,4.4436 0,11.8125 -4.6512,0.2536 -11.3282,0.2536 -18.6562,0 2.4368,47.5129 2.4368,95.4242 0,122.1719 3.9585,-0.8219 11.4108,-0.8219 18.6562,0 -0.4136,2.6644 -0.4136,6.4789 0,11.8125 -15.8236,2.0595 -39.3184,2.0595 -75,0 -1.1837,-5.9032 -1.1837,-9.3023 0,-11.8125 6.566,-0.3261 13.7576,-0.3261 18.5469,0 1.8913,-38.3486 1.8913,-71.4415 0,-111.2344 -11.6552,19.3472 -24.4463,48.1127 -45.2031,101.6563 -2.9949,1.5695 -8.4626,1.5695 -24.7188,0 -21.7284,-44.3906 -37.856,-80.8105 -45.0156,-101.6563 -3.5155,44.471 -3.5155,79.7777 0,111.2344 4.5252,-1.5671 10.3337,-1.5671 18.5625,0 0.2616,4.5707 0.2616,8.8281 0,11.8125 C 46.778,0.9869 30.8541,0.9869 8.4062,0 Z"
         id="path47"
         inkscape:connector-curvature="0" />
      <path
         d="m 50,40 c 105.679,5.8017 217.2813,5.8017 500,0 3.5007,44.2664 3.5007,86.2037 0,150 -118.5166,-7.0698 -231.9241,-7.0698 -500,0 5.1791,-38.5179 5.1791,-80.9983 0,-150 z"
         style="fill:none"
         transform="translate(-700,-175)"
         id="path49"
         inkscape:connector-curvature="0" />
      <path
         d="m 50,40 c 108.9689,5.9823 208.4799,5.9823 500,0 3.4947,44.19 3.4947,86.3138 0,150 -117.6767,-7.0197 -233.8239,-7.0197 -500,0 5.8379,-43.417 5.8379,-72.222 0,-150 z"
         style="fill:none"
         transform="translate(-700,-175)"
         id="path51"
         inkscape:connector-curvature="0" />
      <path
         d="m 550,160 c 0,73.4394 -76.5606,150 -150,150 -64.208,0 -150,-85.792 -150,-150 0,-97.9021 52.0979,-150 150,-150 88.5576,0 150,61.4424 150,150 z"
         style="fill:none"
         transform="translate(-700,-175)"
         id="path53"
         inkscape:connector-curvature="0" />
      <path
         d="m 550,160 c 0,74.19 -75.81,150 -150,150 -67.3585,0 -150,-82.6416 -150,-150 0,-89.147 60.8529,-150 150,-150 93.8748,0 150,56.1252 150,150 z"
         style="fill:none"
         transform="translate(-700,-175)"
         id="path55"
         inkscape:connector-curvature="0" />
      <path
         d="M 50,10 C 155.471,73.2249 258.1249,128.9513 400,200"
         style="fill:none"
         transform="translate(-700,-175)"
         id="path57"
         inkscape:connector-curvature="0" />
      <path
         d="M 50,10 C 163.6867,78.1498 247.0735,123.4169 400,200"
         style="fill:none"
         transform="translate(-700,-175)"
         id="path59"
         inkscape:connector-curvature="0" />
      <path
         d="m 250,60 c 0,23.8269 -52.3462,50 -100,50 C 73.6674,110 50,98.1663 50,60 50,43.525 117.0499,10 150,10 c 68.6824,0 100,15.6588 100,50 z"
         style="fill:none"
         transform="translate(-700,-175)"
         id="path61"
         inkscape:connector-curvature="0" />
      <path
         d="m 250,60 c 0,24.344 -51.3121,50 -100,50 C 76.3229,110 50,96.8385 50,60 50,43.8408 117.6817,10 150,10 c 68.7655,0 100,15.6172 100,50 z"
         style="fill:none"
         transform="translate(-700,-175)"
         id="path63"
         inkscape:connector-curvature="0" />
      <path
         d="m 1034.9231,398.697 c -23.3627,-38.5132 -152.1944,-96.0602 -220.3869,-98.4432 -114.5371,-4.0027 -186.4531,20.9098 -237.9443,82.4263 -41.4352,49.5026 -27.4481,121.3032 31.897,163.7381"
         style="fill:none"
         transform="translate(-700,-175)"
         id="path65"
         inkscape:connector-curvature="0" />
      <path
         d="M 1034.9231,398.697 C 1011.5001,360.0844 882.9047,302.643 814.5362,300.2538 687.0886,295.8 633.8872,314.2295 576.5919,382.6801 533.7017,433.921 547.0598,502.4932 608.4889,546.4182"
         style="fill:none"
         transform="translate(-700,-175)"
         id="path67"
         inkscape:connector-curvature="0" />
      <path
         d="m 50,200 c 11.1792,1.7779 22.4948,4.041 50,10 14.5408,-4.1388 25.8447,-10.9211 50,-30 15.9683,15.076 32.5005,31.6081 50,50 19.4152,-26.6578 38.9635,-54.0255 50,-70"
         style="fill:none"
         transform="translate(-700,-175)"
         id="path69"
         inkscape:connector-curvature="0" />
      <path
         d="m 50,200 c 11.3515,1.8053 22.0709,3.9492 50,10 14.1193,-4.0188 26.545,-11.4742 50,-30 18.5121,17.4776 29.7128,28.6783 50,50 20.7929,-28.5494 38.1804,-52.892 50,-70"
         style="fill:none"
         transform="translate(-700,-175)"
         id="path71"
         inkscape:connector-curvature="0" />
      <path
         d="m 250,200 c 15.5085,-6.3083 26.6784,-17.4783 50,-50 18.1489,19.5081 33.2273,34.5865 50,50 -7.2555,21.2699 -14.3936,44.1117 -25,80 -14.2085,-0.1489 -27.2162,-0.1489 -50,0 z"
         style="fill:none"
         transform="translate(-700,-175)"
         id="path73"
         inkscape:connector-curvature="0" />
      <path
         d="m 250,200 c 15.1398,-6.1583 27.2328,-18.2513 50,-50 18.1108,19.4671 33.2625,34.6188 50,50 -7.2544,21.2667 -14.3952,44.1172 -25,80 -13.3029,-0.1394 -28.6684,-0.1394 -50,0 z"
         style="fill:none"
         transform="translate(-700,-175)"
         id="path75"
         inkscape:connector-curvature="0" />
      <path
         d="m 50,535 c 0.5347,19.736 0.5347,37.4315 0,80 0,6.8151 3.1849,10 10,10 64.1488,-15.095 129.9159,-15.095 280,0 6.976,0 10,-3.024 10,-10 -4.199,-27.5141 -4.199,-51.6819 0,-80 0,-3.6713 -6.3287,-10 -10,-10 -112.5298,7.735 -218.7716,7.735 -280,0 -5.1796,0 -10,4.8204 -10,10 z"
         style="fill:none"
         transform="translate(-700,-175)"
         id="path77"
         inkscape:connector-curvature="0" />
      <path
         d="m 50,535 c 0.5574,20.5768 0.5574,35.618 0,80 0,7.3188 2.6812,10 10,10 66.2757,-15.5955 124.9398,-15.5955 280,0 6.8714,0 10,-3.1287 10,-10 -4.3837,-28.7245 -4.3837,-50.4362 0,-80 0,-3.8456 -6.1544,-10 -10,-10 -107.8888,7.416 -221.2968,7.416 -280,0 -5.133,0 -10,4.8671 -10,10 z"
         style="fill:none"
         transform="translate(-700,-175)"
         id="path79"
         inkscape:connector-curvature="0" />
      <path
         d="m 50,650 c 71.1847,-16.441 143.3204,-12.319 350,20"
         style="fill:none;stroke-width:4"
         transform="translate(-700,-175)"
         id="path81"
         inkscape:connector-curvature="0" />
      <path
         d="m 50,650 c 82.6086,-19.0795 110.1521,-17.5056 350,20"
         style="fill:none;stroke-width:4"
         transform="translate(-700,-175)"
         id="path83"
         inkscape:connector-curvature="0" />
    </g>
    <g
       transform="translate(-50,-50)"
       style="stroke-width:3;stroke-linecap:butt;stroke-linejoin:bevel;stroke-miterlimit:0;stroke-dasharray:9;text-rendering:optimizeLegibility"
       id="g91">
      <path
         style="fill:none"
         d="m 50,670 c 147.7697,39.3401 282.1359,47.0182 350,20"
         id="path87"
         inkscape:connector-curvature="0" />
      <path
         style="fill:none"
         d="m 50,670 c 140.6657,37.4489 285.3985,45.7193 350,20"
         id="path89"
         inkscape:connector-curvature="0" />
    </g>
    <g
       transform="translate(-50,-50)"
       style="fill:#000000;fill-opacity:0.50199998;stroke:#000000;stroke-opacity:0.50199998;text-rendering:optimizeLegibility"
       id="g103">
      <path
         style="stroke:none"
         d="m 967.9385,415.798 c -27.626,-37.951 -95.6731,-63.2805 -176.3095,-65.6288 -112.7159,-3.2825 -139.683,4.5022 -190.3555,54.9509 -49.192,48.9746 -44.9371,67.1764 25.5176,109.1586 C 682.8348,483.4691 742.2658,458.5349 780,450 Z"
         id="path93"
         inkscape:connector-curvature="0" />
      <path
         style="stroke:none"
         d="m 50,340 c 148.3271,-10.2807 300.756,-10.2807 500,0 -1.8152,48.281 -1.8152,100.539 0,150 -149.3041,17.1827 -295.6015,17.1827 -500,0 -3.9972,-48.8343 -3.9972,-93.483 0,-150 z"
         id="path95"
         inkscape:connector-curvature="0" />
      <path
         style="stroke:none"
         d="m 500,350 c 0,46.6112 -106.7776,100 -200,100 -65.369,0 -200,-67.3155 -200,-100 0,-51.6942 96.6116,-100 200,-100 91.0491,0 200,54.4754 200,100 z"
         id="path97"
         inkscape:connector-curvature="0" />
      <path
         style="stroke:none"
         d="m 550,200 c 14.0036,-6.89 24.9388,-17.8251 50,-50 14.926,14.3289 26.7874,26.1903 50,50 -12.3796,29.9592 -22.1706,61.2906 -25,80 -8.1172,2.9414 -18.5656,2.9414 -50,0 z"
         id="path99"
         inkscape:connector-curvature="0" />
      <path
         style="stroke:none"
         d="m 450,535 c -3.6709,28.1167 -3.6709,58.7993 0,80 0,4.1354 5.8646,10 10,10 97.4553,-3.3031 207.8466,-3.3031 280,0 5.9102,0 10,-4.0898 10,-10 -2.4409,-17.3184 -2.4409,-33.4628 0,-80 0,-3.4182 -6.5818,-10 -10,-10 -95.9051,-3.7921 -204.4804,-3.7921 -280,0 -6.6151,0 -10,3.385 -10,10 z"
         id="path101"
         inkscape:connector-curvature="0" />
    </g>
  </g>
</svg>
